<?xml version="1.0" encoding="utf-8"?>
<!-- Generator: Adobe Illustrator 24.1.1, SVG Export Plug-In . SVG Version: 6.00 Build 0)  -->
<svg version="1.1" id="Capa_1" xmlns="http://www.w3.org/2000/svg" xmlns:xlink="http://www.w3.org/1999/xlink" x="0px" y="0px"
	 viewBox="0 0 130 130" style="enable-background:new 0 0 130 130;" xml:space="preserve">
<style type="text/css">
	.st0{fill:url(#SVGID_1_);}
	.st1{fill:url(#SVGID_2_);}
	.st2{fill:url(#SVGID_3_);}
	.st3{fill:url(#SVGID_4_);}
	.st4{fill:url(#SVGID_5_);}
	.scale{transform-box: fill-box;animation: 1s scale infinite alternate;transform-origin: center;}
	@keyframes scale{
		from{
			transform: scale(1);
		}
		to{
			transform: scale(0.8);
		}
	}
</style>
<g class="scale">
	<linearGradient id="SVGID_1_" gradientUnits="userSpaceOnUse" x1="31.415" y1="63.6296" x2="40.1555" y2="63.6296">
		<stop  offset="0" style="stop-color:#073E96"/>
		<stop  offset="0.3013" style="stop-color:#1748AE"/>
		<stop  offset="0.935" style="stop-color:#4063EB"/>
		<stop  offset="1" style="stop-color:#4466F2"/>
	</linearGradient>
	<path class="st0" d="M35.8,59.3c-2.4,0-4.4,2-4.4,4.4c0,2.4,2,4.4,4.4,4.4s4.4-2,4.4-4.4C40.2,61.2,38.2,59.3,35.8,59.3z"/>
	<linearGradient id="SVGID_2_" gradientUnits="userSpaceOnUse" x1="88.5195" y1="63.6296" x2="97.26" y2="63.6296">
		<stop  offset="0" style="stop-color:#073E96"/>
		<stop  offset="0.3013" style="stop-color:#1748AE"/>
		<stop  offset="0.935" style="stop-color:#4063EB"/>
		<stop  offset="1" style="stop-color:#4466F2"/>
	</linearGradient>
	<path class="st1" d="M92.9,59.3c-2.4,0-4.4,2-4.4,4.4c0,2.4,2,4.4,4.4,4.4c2.4,0,4.4-2,4.4-4.4C97.3,61.2,95.3,59.3,92.9,59.3z"/>
	<linearGradient id="SVGID_3_" gradientUnits="userSpaceOnUse" x1="17" y1="64.6633" x2="113" y2="64.6633">
		<stop  offset="0" style="stop-color:#073E96"/>
		<stop  offset="0.3013" style="stop-color:#1748AE"/>
		<stop  offset="0.935" style="stop-color:#4063EB"/>
		<stop  offset="1" style="stop-color:#4466F2"/>
	</linearGradient>
	<path class="st2" d="M65,16.7c-15.7,0-29.7,7.6-38.4,19.2c0.6,0,1.2,0.1,1.9,0.1H40c4.9,0,9.6-1.5,13.9-3.8
		c1.3-0.7,2.8-1.1,4.4-1.1c5.4-0.1,10,4.3,10.1,9.7c0.1,5.5-4.4,10.1-9.9,10.1c-1.7,0-3.3-0.4-4.7-1.2c-5.3-2.9-11.1-4.8-17.2-4.8
		h-4.8c-3.9,0-7.8,0.8-11.5,2.2C18.2,52.5,17,58.4,17,64.7c0,6.3,1.2,12.4,3.5,17.9c2.1,0.6,4.3,0.9,6.5,0.9h11.5
		c4.9,0,9.6-1.5,13.9-3.8c1.3-0.7,2.8-1.1,4.4-1.1c5.4-0.1,10,4.3,10.1,9.7c0.1,5.5-4.4,10.1-9.9,10.1c-1.7,0-3.3-0.4-4.7-1.2
		c-5.3-2.9-11.1-4.8-17.2-4.8h-4.8c-1.4,0-2.9,0.1-4.3,0.3c8.7,12.1,22.9,20,39,20c26.5,0,48-21.5,48-48S91.5,16.7,65,16.7z
		 M93.2,75.6c-2,0-3.9-0.5-5.5-1.4c-6.3-3.4-13.1-5.6-20.2-5.6h-5.6c-7.1,0-14,2.2-20.2,5.6c-1.6,0.9-3.5,1.4-5.5,1.4
		c-6.5,0-11.8-5.3-11.7-11.9c0.1-6.3,5.6-11.6,11.9-11.4c1.9,0,3.6,0.5,5.2,1.3c5.1,2.7,10.6,4.5,16.3,4.5h13.6
		c5.7,0,11.3-1.8,16.3-4.5c1.5-0.8,3.3-1.3,5.2-1.3c6.3-0.1,11.8,5.1,11.9,11.4C104.9,70.2,99.7,75.6,93.2,75.6z"/>
	<linearGradient id="SVGID_4_" gradientUnits="userSpaceOnUse" x1="53" y1="88.1683" x2="60.4227" y2="88.1683">
		<stop  offset="0" style="stop-color:#073E96"/>
		<stop  offset="0.3013" style="stop-color:#1748AE"/>
		<stop  offset="0.935" style="stop-color:#4063EB"/>
		<stop  offset="1" style="stop-color:#4466F2"/>
	</linearGradient>
	<circle class="st3" cx="56.7" cy="88.2" r="3.7"/>
	<linearGradient id="SVGID_5_" gradientUnits="userSpaceOnUse" x1="54.4846" y1="40.6631" x2="61.9073" y2="40.6631">
		<stop  offset="0" style="stop-color:#073E96"/>
		<stop  offset="0.3013" style="stop-color:#1748AE"/>
		<stop  offset="0.935" style="stop-color:#4063EB"/>
		<stop  offset="1" style="stop-color:#4466F2"/>
	</linearGradient>
	<circle class="st4" cx="58.2" cy="40.7" r="3.7"/>
</g>
</svg>
