<?xml version="1.0" encoding="utf-8"?>
<!-- Generator: Adobe Illustrator 24.1.1, SVG Export Plug-In . SVG Version: 6.00 Build 0)  -->
<svg version="1.1" id="Capa_1" xmlns="http://www.w3.org/2000/svg" xmlns:xlink="http://www.w3.org/1999/xlink" x="0px" y="0px"
	 viewBox="0 0 500 130" style="enable-background:new 0 0 500 130;" xml:space="preserve">
<style type="text/css">
	.st0{clip-path:url(#SVGID_2_);fill:url(#SVGID_3_);}
	.st1{fill:url(#SVGID_4_);}
	.st2{fill:url(#SVGID_5_);}
	.st3{fill:url(#SVGID_6_);}
	.st4{fill:url(#SVGID_7_);}
	.st5{fill:url(#SVGID_8_);}
	.rotate{transform-box: fill-box;animation: 3s rotate infinite alternate;transform-origin: center;}
	@keyframes rotate{
		from{
			transform: scale(.5) rotate(0deg);
		}
		to{
			transform: scale(1) rotate(360deg);
		}
	}
</style>
<g>
	<defs>
		<path id="SVGID_1_" d="M50.7,62.7c-6.5-2.2-11.8-5.3-15.8-9.3c-4-4-6.1-9.1-6.1-15c0-5.9,2.1-10.9,6.3-15.1
			c4.2-4.2,9.3-6.3,15.3-6.3c5.9,0,11,2.1,15.2,6.3c2.4,2.3,4.4,6,6,11l-10.8,4.3c-1.3-3.5-2.5-5.8-3.6-6.9
			c-1.9-1.8-4.1-2.8-6.8-2.8c-2.7,0-5,0.9-6.8,2.8c-1.9,1.9-2.8,4.1-2.8,6.8c0,2.7,0.9,5,2.8,6.8c2.1,2.1,5,4,8.7,5.7
			c7.2,2.3,13.3,6,18.3,11c5.6,5.6,8.5,12.3,8.5,20.2c0,7.9-2.8,14.7-8.4,20.3c-5.6,5.6-12.4,8.4-20.3,8.4c-7.9,0-14.7-2.8-20.3-8.5
			c-4.5-4.5-7.3-10.7-8.5-18.6l11.6-4.2c0.7,6.8,2.5,11.6,5.3,14.4c3.3,3.3,7.3,4.9,11.9,4.9c4.6,0,8.6-1.6,11.9-4.9
			c3.3-3.3,4.9-7.3,4.9-12c0-4.6-1.6-8.6-4.9-11.9C59.2,67.1,55.3,64.6,50.7,62.7z M117,45.9c9,0,16.8,3.2,23.1,9.6
			c6.4,6.4,9.6,14.1,9.6,23.2c0,9-3.2,16.8-9.6,23.2c-6.4,6.4-14.1,9.6-23.1,9.6c-9,0-16.7-3.2-23.1-9.6c-6.4-6.4-9.6-14.1-9.6-23.2
			c0-9,3.2-16.8,9.6-23.2C100.2,49.1,107.9,45.9,117,45.9z M102.4,64.2c-4,4-6,8.9-6,14.5c0,5.7,2,10.5,6,14.5c4,4,8.8,6,14.5,6
			c5.7,0,10.5-2,14.5-6c4-4,6-8.8,6-14.5c0-5.6-2-10.5-6-14.5c-4-4-8.8-6-14.5-6C111.3,58.2,106.4,60.2,102.4,64.2z M174.3,62.6
			v47.4h-12V62.6h-5.3V50.7h5.3V40c0.3-4.9,2.1-9.1,5.6-12.6c3.6-3.4,7.8-5.1,12.5-5.1c2.4,0,6,0.8,10.8,2.5l-4,11.3
			c-3.4-1.4-5.5-2.1-6.4-2.1c-1.6,0-3.2,0.7-4.7,2c-1.3,1.3-1.9,2.8-2,4.5v10.2h10.6v11.9H174.3z M200.7,50.7V28.5h11.9v22.2h10.6
			v11.9h-10.6v47.3h-11.9V62.6h-10.6V50.7H200.7z M335.8,92.4V50.7h11.9v40.6c0,2.1,0.7,3.9,2.1,5.3c1.4,1.4,3.1,2.1,5.1,2.1
			c4.7,0,7.1-2.9,7.1-8.8V50.7h12v41.4c-0.2,5.1-2.1,9.4-5.6,12.9c-3.7,3.8-8.2,5.6-13.5,5.6c-5.3,0-9.6-1.8-13-5.5
			c-3.5,3.7-7.9,5.5-13.1,5.5c-5.3,0-9.8-1.9-13.5-5.6c-3.5-3.5-5.4-7.8-5.5-12.9V50.7h11.9v39.2c0,5.9,2.4,8.8,7.1,8.8
			c2,0,3.6-0.7,5.1-2.1C335,95.5,335.6,94,335.8,92.4z M405.5,96.5c2,1.8,5.6,2.6,10.9,2.6c5.7,0,10.5-2,14.5-6
			c0.5-0.5,1.5-1.7,3-3.6l11.9,4.3c-2.9,4-5,6.7-6.3,8c-6.4,6.4-14.1,9.6-23.2,9.6c-9,0-16.7-3.2-23.1-9.6
			c-6.4-6.4-9.6-14.1-9.6-23.2c0-9,3.2-16.8,9.6-23.2c6.4-6.4,14.1-9.6,23.1-9.6c7.7,0,14.5,2.3,20.3,7c1,0.8,1.9,1.7,2.8,2.6
			c0.4,0.4,1.5,1.6,3.3,3.6l-6,6L405.5,96.5z M425.4,59.7c-1.3-1-4.4-1.6-9-1.6c-5.6,0-10.5,2-14.5,6c-4,4-6,8.8-6,14.5
			c0,4.6,0.5,7.6,1.6,9L425.4,59.7z M468.6,58.7c4.4-6,9.9-9.2,16.4-9.5v12.4c-4.3,0.2-7.8,1.6-10.3,4.2c-3.9,3.8-5.9,8.4-6,13.7
			v30.4h-11.9V50.7h11.9V58.7z"/>
	</defs>
	<clipPath id="SVGID_2_">
		<use xlink:href="#SVGID_1_"  style="overflow:visible;"/>
	</clipPath>
	<linearGradient id="SVGID_3_" gradientUnits="userSpaceOnUse" x1="279.4492" y1="-13.1338" x2="279.4492" y2="270.4154">
		<stop  offset="0" style="stop-color:#153A89"/>
		<stop  offset="0.2679" style="stop-color:#2044A1"/>
		<stop  offset="0.831" style="stop-color:#3B5EDE"/>
		<stop  offset="1" style="stop-color:#4466F2"/>
	</linearGradient>
	<rect x="-100.3" y="-21.6" class="st0" width="759.6" height="289.7"/>
</g>
<g>
	<linearGradient id="SVGID_4_" gradientUnits="userSpaceOnUse" x1="240.01" y1="71.7265" x2="247.0057" y2="71.7265">
		<stop  offset="0" style="stop-color:#073E96"/>
		<stop  offset="0.3013" style="stop-color:#1748AE"/>
		<stop  offset="0.935" style="stop-color:#4063EB"/>
		<stop  offset="1" style="stop-color:#4466F2"/>
	</linearGradient>
	
	<linearGradient id="SVGID_5_" gradientUnits="userSpaceOnUse" x1="285.715" y1="71.7265" x2="292.7107" y2="71.7265">
		<stop  offset="0" style="stop-color:#073E96"/>
		<stop  offset="0.3013" style="stop-color:#1748AE"/>
		<stop  offset="0.935" style="stop-color:#4063EB"/>
		<stop  offset="1" style="stop-color:#4466F2"/>
	</linearGradient>
	
	<linearGradient id="SVGID_6_" gradientUnits="userSpaceOnUse" x1="228.4725" y1="72.5539" x2="305.3086" y2="72.5539">
		<stop  offset="0" style="stop-color:#073E96"/>
		<stop  offset="0.3013" style="stop-color:#1748AE"/>
		<stop  offset="0.935" style="stop-color:#4063EB"/>
		<stop  offset="1" style="stop-color:#4466F2"/>
	</linearGradient>
	<g class="rotate">
		<circle class="st5" cx="261.4" cy="53.3" r="3"/>
		<path class="st3" d="M266.9,34.1c-12.6,0-23.7,6-30.8,15.4c0.5,0,1,0.1,1.5,0.1h9.2c3.9,0,7.7-1.2,11.1-3c1.1-0.6,2.2-0.9,3.5-0.9
		c4.3-0.1,8,3.5,8.1,7.8c0.1,4.4-3.5,8.1-7.9,8.1c-1.4,0-2.6-0.3-3.7-0.9c-4.3-2.3-8.9-3.8-13.8-3.8h-3.8c-3.2,0-6.2,0.7-9.2,1.7
		c-1.7,4.4-2.7,9.1-2.7,14.1c0,5.1,1,9.9,2.8,14.4c1.7,0.4,3.4,0.7,5.2,0.7h9.2c3.9,0,7.7-1.2,11.1-3c1.1-0.6,2.2-0.9,3.5-0.9
		c4.3-0.1,8,3.5,8.1,7.8c0.1,4.4-3.5,8.1-7.9,8.1c-1.4,0-2.6-0.3-3.7-0.9c-4.3-2.3-8.9-3.8-13.8-3.8h-3.8c-1.2,0-2.3,0.1-3.4,0.3
		c7,9.7,18.3,16,31.2,16c21.2,0,38.4-17.2,38.4-38.4S288.1,34.1,266.9,34.1z M289.4,81.3c-1.6,0-3.1-0.4-4.4-1.1
		c-5-2.7-10.5-4.5-16.2-4.5h-4.5c-5.7,0-11.2,1.8-16.2,4.5c-1.3,0.7-2.8,1.1-4.4,1.1c-5.2,0-9.4-4.3-9.3-9.5
		c0.1-5.1,4.5-9.3,9.5-9.2c1.5,0,2.9,0.4,4.1,1.1c4.1,2.2,8.5,3.6,13.1,3.6H272c4.6,0,9-1.4,13.1-3.6c1.2-0.7,2.6-1,4.1-1.1
		c5.1-0.1,9.5,4.1,9.5,9.2C298.9,77,294.7,81.3,289.4,81.3z"/>

		<path class="st1" d="M243.5,68.2c-1.9,0-3.5,1.6-3.5,3.5c0,1.9,1.6,3.5,3.5,3.5s3.5-1.6,3.5-3.5C247,69.8,245.4,68.2,243.5,68.2z"
		/>

		<path class="st2" d="M289.2,68.2c-1.9,0-3.5,1.6-3.5,3.5c0,1.9,1.6,3.5,3.5,3.5c1.9,0,3.5-1.6,3.5-3.5
		C292.7,69.8,291.1,68.2,289.2,68.2z"/>		
		<circle class="st4" cx="260.3" cy="91.4" r="3"/>
	</g>

	<linearGradient id="SVGID_7_" gradientUnits="userSpaceOnUse" x1="257.2861" y1="91.3667" x2="263.227" y2="91.3667">
		<stop  offset="0" style="stop-color:#073E96"/>
		<stop  offset="0.3013" style="stop-color:#1748AE"/>
		<stop  offset="0.935" style="stop-color:#4063EB"/>
		<stop  offset="1" style="stop-color:#4466F2"/>
	</linearGradient>
	<linearGradient id="SVGID_8_" gradientUnits="userSpaceOnUse" x1="258.4743" y1="53.3447" x2="264.4152" y2="53.3447">
		<stop  offset="0" style="stop-color:#073E96"/>
		<stop  offset="0.3013" style="stop-color:#1748AE"/>
		<stop  offset="0.935" style="stop-color:#4063EB"/>
		<stop  offset="1" style="stop-color:#4466F2"/>
	</linearGradient>
</g>
</svg>
