<?xml version="1.0" encoding="utf-8"?>
<!-- Generator: Adobe Illustrator 24.1.1, SVG Export Plug-In . SVG Version: 6.00 Build 0)  -->
<svg version="1.1" id="Capa_1" xmlns="http://www.w3.org/2000/svg" xmlns:xlink="http://www.w3.org/1999/xlink" x="0px" y="0px"
	 viewBox="0 0 600 800" style="enable-background:new 0 0 600 800;" xml:space="preserve">
<style type="text/css">
	.st0{fill:#FFFFFF;}
</style>
<g>
	<g>
		<path class="st0" d="M510.8,101.2v604.3H90V101.2H510.8 M516.2,58H95.3c-23.8,0-48.5,15.9-48.5,39.7V702
			c0,23.8,24.7,46.6,48.5,46.6h420.9c23.8,0,37.8-22.8,37.8-46.6V97.7C554,73.9,540,58,516.2,58L516.2,58z"/>
	</g>
	<g>
		<path class="st0" d="M456.9,619.2h-313c-6,0-10.8-4.8-10.8-10.8V198.3c0-6,4.8-10.8,10.8-10.8h313c6,0,10.8,4.8,10.8,10.8v410.1
			C467.7,614.3,462.8,619.2,456.9,619.2z M154.7,597.6h291.4V209.1H154.7V597.6z"/>
	</g>
	<g>
		<path class="st0" d="M176.3,273.8c-6,0-10.8-4.8-10.8-10.8v-32.4c0-6,4.8-10.8,10.8-10.8h75.5c6,0,10.8,4.8,10.8,10.8
			s-4.8,10.8-10.8,10.8h-64.8V263C187.1,269,182.3,273.8,176.3,273.8z"/>
	</g>
	<g>
		<path class="st0" d="M316.6,241.4h-32.4c-6,0-10.8-4.8-10.8-10.8s4.8-10.8,10.8-10.8h32.4c6,0,10.8,4.8,10.8,10.8
			S322.5,241.4,316.6,241.4z"/>
	</g>
	<g>
		<path class="st0" d="M349,155.1h-97.1c-6,0-10.8-4.8-10.8-10.8s4.8-10.8,10.8-10.8H349c6,0,10.8,4.8,10.8,10.8
			S354.9,155.1,349,155.1z"/>
	</g>
	<g>
		<path class="st0" d="M305.8,683.2c-16.4,0-29.7-13.3-29.7-29.7c0-16.4,13.3-29.7,29.7-29.7c16.4,0,29.7,13.3,29.7,29.7
			C335.4,669.9,322.1,683.2,305.8,683.2z M305.8,645.4c-4.5,0-8.1,3.6-8.1,8.1c0,4.5,3.6,8.1,8.1,8.1c4.5,0,8.1-3.6,8.1-8.1
			C313.9,649.1,310.2,645.4,305.8,645.4z"/>
	</g>
</g>
</svg>
