<?xml version="1.0" encoding="utf-8"?>
<!-- Generator: Adobe Illustrator 24.1.1, SVG Export Plug-In . SVG Version: 6.00 Build 0)  -->
<svg version="1.1" id="Capa_1" xmlns="http://www.w3.org/2000/svg" xmlns:xlink="http://www.w3.org/1999/xlink" x="0px" y="0px"
	 viewBox="0 0 747 547" style="enable-background:new 0 0 747 547;" xml:space="preserve">
<style type="text/css">
	.st0{opacity:8.454241e-02;fill:#7367F0;enable-background:new    ;}
	.st1{opacity:7.026599e-02;fill-rule:evenodd;clip-rule:evenodd;fill:#00CFE8;enable-background:new    ;}
	.st2{opacity:7.393973e-02;fill-rule:evenodd;clip-rule:evenodd;fill:#00CFE8;enable-background:new    ;}
	.st3{fill-rule:evenodd;clip-rule:evenodd;fill:#E7FCFF;}
	.st4{opacity:0.3834;fill-rule:evenodd;clip-rule:evenodd;fill:#00CFE8;enable-background:new    ;}
	.st5{fill-rule:evenodd;clip-rule:evenodd;fill:#D4EFFF;}
	.st6{fill-rule:evenodd;clip-rule:evenodd;fill:#91D6FF;}
	.st7{filter:url(#filter-2);}
	.st8{fill-rule:evenodd;clip-rule:evenodd;}
	.st9{fill-rule:evenodd;clip-rule:evenodd;fill:#FFFFFF;}
	.st10{opacity:0.4541;fill-rule:evenodd;clip-rule:evenodd;fill:#3655C9;enable-background:new    ;}
	.st11{fill-rule:evenodd;clip-rule:evenodd;fill:#3655C9;}
	.st12{fill-rule:evenodd;clip-rule:evenodd;fill:#3667E0;}
	.st13{filter:url(#filter-5);}
	.st14{filter:url(#Adobe_OpacityMaskFilter);}
	.st15{mask:url(#mask-4_1_);}
	.st16{filter:url(#filter-7);}
	.st17{fill:none;stroke:#8EEAF6;stroke-width:4.004;stroke-linecap:round;}
	.st18{filter:url(#Adobe_OpacityMaskFilter_1_);}
	.st19{opacity:0.4147;mask:url(#mask-4_2_);fill-rule:evenodd;clip-rule:evenodd;fill:#CEF9FF;enable-background:new    ;}
	.st20{filter:url(#Adobe_OpacityMaskFilter_2_);}
	.st21{mask:url(#mask-4_3_);fill-rule:evenodd;clip-rule:evenodd;fill:#8EEAF6;}
	.st22{filter:url(#Adobe_OpacityMaskFilter_3_);}
	.st23{mask:url(#mask-4_4_);fill-rule:evenodd;clip-rule:evenodd;fill:#8EEAF6;fill-opacity:0.4019;}
	.st24{filter:url(#Adobe_OpacityMaskFilter_4_);}
	.st25{mask:url(#mask-4_5_);fill-rule:evenodd;clip-rule:evenodd;fill:#8EEAF6;fill-opacity:0.4517;}
	.st26{filter:url(#Adobe_OpacityMaskFilter_5_);}
	.st27{mask:url(#mask-4_6_);fill-rule:evenodd;clip-rule:evenodd;fill:#8EEAF6;fill-opacity:0.4517;}
	.st28{filter:url(#Adobe_OpacityMaskFilter_6_);}
	.st29{mask:url(#mask-4_7_);fill-rule:evenodd;clip-rule:evenodd;fill:#8EEAF6;fill-opacity:0.4517;}
	.st30{filter:url(#filter-9);}
	.st31{fill-rule:evenodd;clip-rule:evenodd;fill:#E6EBFF;}
	.st32{fill-rule:evenodd;clip-rule:evenodd;fill:#C2CCFF;}
	.st33{opacity:0.5757;fill-rule:evenodd;clip-rule:evenodd;fill:#3655C9;enable-background:new    ;}
	.st34{fill-rule:evenodd;clip-rule:evenodd;fill:#BFE7FF;}
	.st35{fill-rule:evenodd;clip-rule:evenodd;fill:#422851;}
	.st36{fill-rule:evenodd;clip-rule:evenodd;fill:url(#Path_155_);}
	.st37{fill-rule:evenodd;clip-rule:evenodd;fill:url(#Path_175_);}
	.st38{fill:none;stroke:#F77B7B;stroke-width:1.5;stroke-linecap:round;}
	.st39{fill:none;stroke:#F49494;stroke-linecap:round;}
	.st40{fill:none;stroke:#F77B7B;stroke-linecap:round;}
	.st41{fill-rule:evenodd;clip-rule:evenodd;fill:url(#Path_176_);}
	.st42{fill-rule:evenodd;clip-rule:evenodd;fill:#222D4E;}
	.st43{fill-rule:evenodd;clip-rule:evenodd;fill:#FFFFFF;fill-opacity:0.541;}
	.st44{fill-rule:evenodd;clip-rule:evenodd;fill:url(#Path_177_);}
	.st45{fill-rule:evenodd;clip-rule:evenodd;fill:url(#Path_178_);}
	.st46{fill-rule:evenodd;clip-rule:evenodd;fill-opacity:0.3028;}
	.st47{fill-rule:evenodd;clip-rule:evenodd;fill-opacity:0.1994;}
	.st48{fill-rule:evenodd;clip-rule:evenodd;fill:url(#Path_179_);}
	.st49{fill-rule:evenodd;clip-rule:evenodd;fill:#F8CFCF;}
	.st50{fill-rule:evenodd;clip-rule:evenodd;fill:#4B4B4B;}
	.st51{fill:none;stroke:#FFFFFF;stroke-width:2;stroke-linecap:round;}
	.st52{fill-rule:evenodd;clip-rule:evenodd;fill:#383838;}
	.st53{opacity:0.2836;fill-rule:evenodd;clip-rule:evenodd;fill:#FFFFFF;fill-opacity:0.1925;enable-background:new    ;}
	.st54{fill-rule:evenodd;clip-rule:evenodd;fill:#2E2E2E;}
	.st55{fill-rule:evenodd;clip-rule:evenodd;fill:#F28585;}
	.st56{fill-rule:evenodd;clip-rule:evenodd;fill-opacity:0.1599;}
	.st57{fill:none;stroke:#5386BF;stroke-linecap:round;}
	.st58{fill-rule:evenodd;clip-rule:evenodd;fill:#F8C5C5;}
	.st59{fill-rule:evenodd;clip-rule:evenodd;fill:url(#Path_180_);}
	.st60{fill-rule:evenodd;clip-rule:evenodd;fill:#424242;}
	.st61{fill:none;stroke:#CC6969;stroke-linecap:round;}
	.st62{fill:none;stroke:#DE6767;stroke-linecap:round;}
	.st63{fill-rule:evenodd;clip-rule:evenodd;fill:#5E54C7;}
	.st64{fill-rule:evenodd;clip-rule:evenodd;fill:#CBC6FF;}
	.st65{fill:#6182EC;}
	.st66{fill-rule:evenodd;clip-rule:evenodd;fill:#96EFFA;}
	.st67{fill:#74CFDB;}
	.st68{fill:#EAEFFF;}
	.st69{fill:#7AD2DD;}
	.st70{fill-rule:evenodd;clip-rule:evenodd;fill:#02D3AF;}
	.st71{fill-rule:evenodd;clip-rule:evenodd;fill:#02B596;}
	.st72{fill-rule:evenodd;clip-rule:evenodd;fill:#C2FFF4;}
	.st73{fill-rule:evenodd;clip-rule:evenodd;fill:url(#Path_181_);}
	.st74{fill-rule:evenodd;clip-rule:evenodd;fill:url(#Path_182_);}
	.st75{filter:url(#Adobe_OpacityMaskFilter_7_);}
	.st76{mask:url(#mask-19_1_);fill-rule:evenodd;clip-rule:evenodd;fill:#3667E0;}
	.st77{fill-rule:evenodd;clip-rule:evenodd;fill:url(#Path_183_);}
	.st78{fill-rule:evenodd;clip-rule:evenodd;fill:#EEDFE8;}
	.st79{fill-rule:evenodd;clip-rule:evenodd;fill:#EC7AA5;}
	.st80{fill-rule:evenodd;clip-rule:evenodd;fill:#413C75;}
	.st81{fill-rule:evenodd;clip-rule:evenodd;fill:url(#Path_184_);}
	.st82{fill-rule:evenodd;clip-rule:evenodd;fill:#EA5455;}
	.st83{fill-rule:evenodd;clip-rule:evenodd;fill:url(#Path_185_);}
	.st84{fill-rule:evenodd;clip-rule:evenodd;fill:url(#Path_186_);}
	.st85{fill-rule:evenodd;clip-rule:evenodd;fill:#FFE4F4;}
	.st86{fill-rule:evenodd;clip-rule:evenodd;fill:url(#Path_187_);}
	.st87{fill-rule:evenodd;clip-rule:evenodd;fill:#524D87;}
	.st88{fill-rule:evenodd;clip-rule:evenodd;fill:#FFFFFF;fill-opacity:5.610795e-02;}
	.st89{fill-rule:evenodd;clip-rule:evenodd;fill:url(#Path_188_);}
	.st90{fill-rule:evenodd;clip-rule:evenodd;fill:url(#Rectangle_45_);}
	.st91{fill-rule:evenodd;clip-rule:evenodd;fill:#518DF8;}
	.st92{fill:#FFFFFF;}
	.st93{fill-rule:evenodd;clip-rule:evenodd;fill:#E9E9E9;}
	.st94{fill-rule:evenodd;clip-rule:evenodd;fill:#D3D3D3;}
	.st95{fill-rule:evenodd;clip-rule:evenodd;fill:#DBDBDB;}
	.st96{fill-rule:evenodd;clip-rule:evenodd;fill:#92691F;}
	.st97{fill-rule:evenodd;clip-rule:evenodd;fill:#391B0B;}
	.st98{fill-rule:evenodd;clip-rule:evenodd;fill:#81411E;}
	.st99{fill-rule:evenodd;clip-rule:evenodd;fill:#7A3636;}
	.st100{fill-rule:evenodd;clip-rule:evenodd;fill:#FFFFFF;fill-opacity:0.1925;}
	.st101{fill-rule:evenodd;clip-rule:evenodd;fill:url(#Path_189_);}
	.st102{fill-rule:evenodd;clip-rule:evenodd;fill:url(#Path_190_);}
	.st103{fill-rule:evenodd;clip-rule:evenodd;fill:#2C272E;}
	.st104{fill-rule:evenodd;clip-rule:evenodd;fill:#E5AA41;}
	.st105{fill-rule:evenodd;clip-rule:evenodd;fill:url(#Path_191_);}
	.st106{fill-rule:evenodd;clip-rule:evenodd;fill:url(#Rectangle_47_);}
	.st107{fill-rule:evenodd;clip-rule:evenodd;fill:url(#Rectangle_48_);}
	.st108{fill-rule:evenodd;clip-rule:evenodd;fill:url(#Path_192_);}
	.st109{fill-rule:evenodd;clip-rule:evenodd;fill:#FFB66F;}
	.st110{fill-rule:evenodd;clip-rule:evenodd;fill:#FFEDC2;}
	.st111{fill-rule:evenodd;clip-rule:evenodd;fill:url(#Path_193_);}
	.st112{fill-rule:evenodd;clip-rule:evenodd;fill:#33373E;}
	.st113{fill-rule:evenodd;clip-rule:evenodd;fill:url(#Path_194_);}
	.st114{fill-rule:evenodd;clip-rule:evenodd;fill:#42474F;}
	.st115{fill-rule:evenodd;clip-rule:evenodd;fill:url(#Path_195_);}
	.st116{fill-rule:evenodd;clip-rule:evenodd;fill:#9E5229;}
	.st117{fill-rule:evenodd;clip-rule:evenodd;fill:#FB9934;}
	.st118{fill-rule:evenodd;clip-rule:evenodd;fill:#FF9F43;}
	.st119{fill-rule:evenodd;clip-rule:evenodd;fill:#FFF6E1;}
	.st120{fill-rule:evenodd;clip-rule:evenodd;fill:url(#Path_196_);}
</style>
<filter  filterUnits="objectBoundingBox" height="132.6%" id="filter-9" width="122.5%" x="-8.7%" y="-12.7%">
	<feOffset  dx="6" dy="6" in="SourceAlpha" result="shadowOffsetOuter1"></feOffset>
	<feGaussianBlur  in="shadowOffsetOuter1" result="shadowBlurOuter1" stdDeviation="8"></feGaussianBlur>
	
		<feColorMatrix  in="shadowBlurOuter1" type="matrix" values="0 0 0 0 0.701879529   0 0 0 0 0.701879529   0 0 0 0 0.701879529  0 0 0 0.208724869 0">
		</feColorMatrix>
</filter>
<filter  filterUnits="objectBoundingBox" height="198.7%" id="filter-7" width="149.0%" x="-24.7%" y="-28.4%">
	<feMorphology  in="SourceAlpha" operator="dilate" radius="2.002" result="shadowSpreadOuter1"></feMorphology>
	<feOffset  dx="0" dy="13" in="shadowSpreadOuter1" result="shadowOffsetOuter1"></feOffset>
	<feMorphology  in="SourceAlpha" operator="erode" radius="2.002" result="shadowInner"></feMorphology>
	<feOffset  dx="0" dy="13" in="shadowInner" result="shadowInner"></feOffset>
	<feComposite  in="shadowOffsetOuter1" in2="shadowInner" operator="out" result="shadowOffsetOuter1"></feComposite>
	<feGaussianBlur  in="shadowOffsetOuter1" result="shadowBlurOuter1" stdDeviation="7.5"></feGaussianBlur>
	<feColorMatrix  in="shadowBlurOuter1" type="matrix" values="0 0 0 0 0   0 0 0 0 0   0 0 0 0 0  0 0 0 0.144394668 0">
		</feColorMatrix>
</filter>
<filter  filterUnits="objectBoundingBox" height="165.2%" id="filter-5" width="155.0%" x="-22.8%" y="-26.3%">
	<feOffset  dx="8" dy="9" in="SourceAlpha" result="shadowOffsetOuter1"></feOffset>
	<feGaussianBlur  in="shadowOffsetOuter1" result="shadowBlurOuter1" stdDeviation="14"></feGaussianBlur>
	
		<feColorMatrix  in="shadowBlurOuter1" result="shadowMatrixOuter1" type="matrix" values="0 0 0 0 0.0755212756   0 0 0 0 0.582569014   0 0 0 0 0.878793025  0 0 0 0.229458042 0">
		</feColorMatrix>
	<feOffset  dx="0" dy="2" in="SourceAlpha" result="shadowOffsetOuter2"></feOffset>
	<feGaussianBlur  in="shadowOffsetOuter2" result="shadowBlurOuter2" stdDeviation="7.5"></feGaussianBlur>
	
		<feColorMatrix  in="shadowBlurOuter2" result="shadowMatrixOuter2" type="matrix" values="0 0 0 0 0.50398247   0 0 0 0 0.700178215   0 0 0 0 1  0 0 0 0.233828671 0">
		</feColorMatrix>
	<feMerge>
		<feMergeNode  in="shadowMatrixOuter1"></feMergeNode>
		<feMergeNode  in="shadowMatrixOuter2"></feMergeNode>
	</feMerge>
</filter>
<filter  filterUnits="objectBoundingBox" height="280.8%" id="filter-2" width="168.5%" x="-28.4%" y="-72.9%">
	<feOffset  dx="8" dy="9" in="SourceAlpha" result="shadowOffsetOuter1"></feOffset>
	<feGaussianBlur  in="shadowOffsetOuter1" result="shadowBlurOuter1" stdDeviation="14"></feGaussianBlur>
	
		<feColorMatrix  in="shadowBlurOuter1" result="shadowMatrixOuter1" type="matrix" values="0 0 0 0 0.0755212756   0 0 0 0 0.582569014   0 0 0 0 0.878793025  0 0 0 0.229458042 0">
		</feColorMatrix>
	<feOffset  dx="0" dy="2" in="SourceAlpha" result="shadowOffsetOuter2"></feOffset>
	<feGaussianBlur  in="shadowOffsetOuter2" result="shadowBlurOuter2" stdDeviation="7.5"></feGaussianBlur>
	
		<feColorMatrix  in="shadowBlurOuter2" result="shadowMatrixOuter2" type="matrix" values="0 0 0 0 0.50398247   0 0 0 0 0.700178215   0 0 0 0 1  0 0 0 0.233828671 0">
		</feColorMatrix>
	<feMerge>
		<feMergeNode  in="shadowMatrixOuter1"></feMergeNode>
		<feMergeNode  in="shadowMatrixOuter2"></feMergeNode>
	</feMerge>
</filter>
<g id="Shape" transform="translate(0.500000, 0.500000)">
	<g id="Group-59" transform="translate(0.000000, 0.818995)">
		<path id="Path" class="st0" d="M673.8,164.9c9.4-12.5,27.1-15.1,39.7-5.7c12.4,9.3,15,26.8,6,39.3l-0.3,0.4l-74.3,99.2
			c-9.5,12.6-27,15.8-40.3,7.4l-0.4-0.3l-46.8-30.6l-47.2,68.6c-8.8,12.8-26.1,16.1-39,7.6l-0.4-0.3c-12.8-8.8-16.1-26.1-7.6-39
			l0.3-0.4l61.8-90c9.2-13.4,27.3-17.1,41-8.4l0.4,0.3l47.6,31.2L673.8,164.9z"/>
		<path id="Path_1_" class="st0" d="M430.6,4c2.4-3.5,7.1-4.3,10.6-2c3.4,2.3,4.3,7,2.1,10.4l-0.1,0.1l-18.5,26.9
			c-2.7,3.8-8,4.7-11.8,2.1l-0.1-0.1l-10.6-7.6l-11.5,18.3c-2.2,3.5-6.8,4.6-10.4,2.5l-0.1-0.1c-3.5-2.2-4.6-6.8-2.5-10.3l0.1-0.1
			L393,19.8c2.5-4,7.8-5.2,11.8-2.7l0.2,0.1l0.2,0.1l10.9,7.7L430.6,4z"/>
		<path id="_x2B_" class="st1" d="M635.4,127.5v-18l0,0h18c1.4,0,2.5-1.1,2.5-2.5v-8.7c0-1.4-1.1-2.5-2.5-2.5h-18l0,0V77.7
			c0-1.4-1.1-2.5-2.5-2.5h-8.8c-1.4,0-2.5,1.1-2.5,2.5v18.1l0,0h-18c-1.4,0-2.5,1.1-2.5,2.5v8.7c0,1.4,1.1,2.5,2.5,2.5h18l0,0v18
			c0,1.4,1.1,2.5,2.5,2.5h8.8C634.3,130,635.4,128.9,635.4,127.5z"/>
		<path id="Oval" class="st2" d="M92.1,20.7c50.6,0,91.6,41,91.6,91.6s-41,91.6-91.6,91.6s-91.6-41-91.6-91.6S41.5,20.7,92.1,20.7z
			 M92.1,66c-25.6,0-46.3,20.7-46.3,46.2s20.7,46.2,46.3,46.2s46.3-20.7,46.3-46.2S117.7,66,92.1,66z"/>
	</g>
</g>
<g id="Group-63" transform="translate(0.596257, 0.000000)">
	<path id="Rectangle" class="st3" d="M77,87h470.1c8.8,0,16,7.2,16,16v204.2c0,8.8-7.2,16-16,16H77c-8.8,0-16-7.2-16-16V103
		C61,94.2,68.2,87,77,87z"/>
	<path id="Rectangle_1_" class="st4" d="M84.6,87h462.6c8.8,0,16,7.2,16,16v204.2c0,8.8-7.2,16-16,16H84.6c-8.8,0-16-7.2-16-16V103
		C68.6,94.2,75.7,87,84.6,87z"/>
	<path id="Rectangle_2_" class="st3" d="M86.1,94.6h459.5c5.5,0,10,4.5,10,10v201.1c0,5.5-4.5,10-10,10H86.1c-5.5,0-10-4.5-10-10
		V104.6C76.1,99,80.6,94.6,86.1,94.6z"/>
	<path id="Rectangle_3_" class="st5" d="M281.3,295.8h69.2c3.3,0,6,2.7,6,6v13.8l0,0h-81.2v-13.8
		C275.3,298.5,277.9,295.8,281.3,295.8z"/>
	<path id="Rectangle_4_" class="st6" d="M288.8,295.8H358c3.3,0,6,2.7,6,6v21.4l0,0h-81.2v-21.4
		C282.8,298.5,285.5,295.8,288.8,295.8z"/>
</g>
<g id="ElementCard20" transform="translate(29.855615, 17.008163)">
	<g id="Rectangle_5_">
		<g class="st7">
			<path id="path-1_2_" class="st8" d="M66.4,87h125c3,0,5.4,2.4,5.4,5.4V133c0,3-2.4,5.4-5.4,5.4h-125c-3,0-5.4-2.4-5.4-5.4V92.4
				C61,89.4,63.4,87,66.4,87z"/>
		</g>
		<g>
			<path id="path-1_1_" class="st9" d="M66.4,87h125c3,0,5.4,2.4,5.4,5.4V133c0,3-2.4,5.4-5.4,5.4h-125c-3,0-5.4-2.4-5.4-5.4V92.4
				C61,89.4,63.4,87,66.4,87z"/>
		</g>
	</g>
	<path id="Rectangle_6_" class="st10" d="M102.7,116h25.4c0.8,0,1.5,0.7,1.5,1.5s-0.7,1.5-1.5,1.5h-25.4c-0.8,0-1.5-0.7-1.5-1.5
		S101.9,116,102.7,116z"/>
	<path id="Rectangle_7_" class="st11" d="M102.7,107.4H118c0.8,0,1.5,0.7,1.5,1.5s-0.7,1.5-1.5,1.5h-15.3c-0.8,0-1.5-0.7-1.5-1.5
		S101.9,107.4,102.7,107.4z"/>
	<g id="Group-9" transform="translate(78.327328, 13.238773)">
		<path id="Path_2_" class="st11" d="M97.6,92c2.2-2.9,6.2-3.4,9.1-1.2c0.7,0.5,1.2,1.1,1.6,1.8c0.2,0.4,0.1,0.8-0.3,1.1
			s-0.8,0.1-1.1-0.3c-0.3-0.5-0.7-1-1.2-1.4c-2.1-1.6-5.2-1.3-6.8,0.8L98.9,93l-2.4,3.1c-3.7,4.9-10,7.1-16,5.5l-0.3-0.1l-1.9-0.5
			c-0.1,0-0.2-0.1-0.4-0.1c-3.5-0.8-7,1.4-7.8,4.9l0,0.2l-0.4,1.8c-0.1,0.6-0.4,1.2-0.8,1.8c-1.5,2.1-4.4,2.5-6.5,1
			c-0.3-0.3-0.4-0.7-0.2-1.1c0.3-0.3,0.7-0.4,1.1-0.2c1.4,1,3.3,0.7,4.4-0.7c0.2-0.3,0.4-0.7,0.5-1l0-0.2l0.4-1.8
			c1-4.4,5.3-7.2,9.7-6.2l0.2,0.1l0.2,0.1l1.9,0.5c5.3,1.5,11-0.4,14.4-4.7l0.2-0.2L97.6,92z"/>
		<path id="Path_3_" class="st12" d="M90.7,91.1c1.6-3.5,5.7-5.1,9.2-3.5c0.7,0.3,1.3,0.7,1.9,1.3c1.3,1.2,2.5,3.2,3.7,5.9
			c0.2,0.4,0,0.8-0.4,1c-0.4,0.2-0.8,0-1-0.4c-1.1-2.5-2.2-4.3-3.3-5.4c-0.4-0.4-0.9-0.7-1.5-1c-2.7-1.2-5.8-0.1-7.1,2.6l-0.1,0.1
			l-0.5,1.1c-0.1,0.3-0.2,0.5-0.4,0.7c-1.8,2.9-5.7,3.8-8.6,2c-0.3-0.2-0.7-0.4-1.1-0.5c-2-0.4-3.9,0.7-4.4,2.7l0,0.1l-0.9,3.7
			c-0.3,1.1-0.8,2.2-1.6,3c-2.4,2.7-6.5,2.9-9.2,0.5l-0.1-0.1l-3.5-3.2c-0.3-0.3-0.3-0.8,0-1.1c0.3-0.3,0.7-0.3,1-0.1l0.1,0.1
			l3.5,3.2c2.1,1.9,5.3,1.8,7.2-0.3c0.6-0.6,1-1.3,1.2-2.1l0-0.2l0.9-3.7c0.6-2.8,3.5-4.6,6.3-3.9c0.5,0.1,1,0.3,1.4,0.6l0.2,0.1
			c2.2,1.4,5.1,0.7,6.5-1.5c0.1-0.1,0.1-0.2,0.2-0.4l0.1-0.2L90.7,91.1z"/>
	</g>
	<ellipse id="Oval_1_" class="st11" cx="83.6" cy="113.2" rx="10.4" ry="10.4"/>
</g>
<g id="ElementCard3" transform="translate(29.855615, 75.591837)">
	<g id="Rectangle_8_">
		<g class="st13">
			<path id="path-3_10_" class="st8" d="M66,87h158.9c2.8,0,5,2.2,5,5v132.7c0,2.8-2.2,5-5,5H66c-2.8,0-5-2.2-5-5V92
				C61,89.2,63.2,87,66,87z"/>
		</g>
		<g>
			<path id="path-3_2_" class="st9" d="M66,87h158.9c2.8,0,5,2.2,5,5v132.7c0,2.8-2.2,5-5,5H66c-2.8,0-5-2.2-5-5V92
				C61,89.2,63.2,87,66,87z"/>
		</g>
	</g>
	<defs>
		<filter id="Adobe_OpacityMaskFilter" filterUnits="userSpaceOnUse" x="52.2" y="115.3" width="190" height="126">
			<feColorMatrix  type="matrix" values="1 0 0 0 0  0 1 0 0 0  0 0 1 0 0  0 0 0 1 0"/>
		</filter>
	</defs>
	<mask maskUnits="userSpaceOnUse" x="52.2" y="115.3" width="190" height="126" id="mask-4_1_">
		<g class="st14">
			<path id="path-3_3_" class="st9" d="M66,87h158.9c2.8,0,5,2.2,5,5v132.7c0,2.8-2.2,5-5,5H66c-2.8,0-5-2.2-5-5V92
				C61,89.2,63.2,87,66,87z"/>
		</g>
	</mask>
	<g id="Path-3" class="st15">
		<g class="st16">
			<path id="path-6_2_" class="st8" d="M83.7,196.6c13.4-3.8,23-9.7,28.9-17.6c8.9-11.8,11.8-23.2,27.1-23.2s17.2,17.5,33.6,17.5
				s17.4-22.3,22.8-31.2c3.6-5.9,8.6-8.9,14.9-8.9"/>
		</g>
		<g>
			<path id="path-6_1_" class="st17" d="M83.7,196.6c13.4-3.8,23-9.7,28.9-17.6c8.9-11.8,11.8-23.2,27.1-23.2s17.2,17.5,33.6,17.5
				s17.4-22.3,22.8-31.2c3.6-5.9,8.6-8.9,14.9-8.9"/>
		</g>
	</g>
	<defs>
		<filter id="Adobe_OpacityMaskFilter_1_" filterUnits="userSpaceOnUse" x="83.7" y="132.4" width="127.4" height="77.5">
			<feColorMatrix  type="matrix" values="1 0 0 0 0  0 1 0 0 0  0 0 1 0 0  0 0 0 1 0"/>
		</filter>
	</defs>
	<mask maskUnits="userSpaceOnUse" x="83.7" y="132.4" width="127.4" height="77.5" id="mask-4_2_">
		<g class="st18">
			<path id="path-3_4_" class="st9" d="M66,87h158.9c2.8,0,5,2.2,5,5v132.7c0,2.8-2.2,5-5,5H66c-2.8,0-5-2.2-5-5V92
				C61,89.2,63.2,87,66,87z"/>
		</g>
	</mask>
	<path id="Path-3_1_" class="st19" d="M83.7,195.4c13.4-3.8,23-9.7,28.9-17.5c8.9-11.7,11.8-23.1,27.1-23.1s17.2,17.4,33.6,17.4
		s17.4-22.2,22.8-31c3.6-5.9,8.6-8.8,14.9-8.8v74.4c0,1.7-1.4,3.1-3.1,3.1H86.7c-1.7,0-3.1-1.4-3.1-3.1V195.4L83.7,195.4z"/>
	<defs>
		<filter id="Adobe_OpacityMaskFilter_2_" filterUnits="userSpaceOnUse" x="74.2" y="101.2" width="52.9" height="5.7">
			<feColorMatrix  type="matrix" values="1 0 0 0 0  0 1 0 0 0  0 0 1 0 0  0 0 0 1 0"/>
		</filter>
	</defs>
	<mask maskUnits="userSpaceOnUse" x="74.2" y="101.2" width="52.9" height="5.7" id="mask-4_3_">
		<g class="st20">
			<path id="path-3_5_" class="st9" d="M66,87h158.9c2.8,0,5,2.2,5,5v132.7c0,2.8-2.2,5-5,5H66c-2.8,0-5-2.2-5-5V92
				C61,89.2,63.2,87,66,87z"/>
		</g>
	</mask>
	<rect id="Rectangle_9_" x="74.2" y="101.2" class="st21" width="52.9" height="5.7"/>
	<defs>
		<filter id="Adobe_OpacityMaskFilter_3_" filterUnits="userSpaceOnUse" x="74.2" y="115.3" width="24.5" height="5.7">
			<feColorMatrix  type="matrix" values="1 0 0 0 0  0 1 0 0 0  0 0 1 0 0  0 0 0 1 0"/>
		</filter>
	</defs>
	<mask maskUnits="userSpaceOnUse" x="74.2" y="115.3" width="24.5" height="5.7" id="mask-4_4_">
		<g class="st22">
			<path id="path-3_6_" class="st9" d="M66,87h158.9c2.8,0,5,2.2,5,5v132.7c0,2.8-2.2,5-5,5H66c-2.8,0-5-2.2-5-5V92
				C61,89.2,63.2,87,66,87z"/>
		</g>
	</mask>
	<path id="Rectangle_10_" class="st23" d="M77,115.3h18.9c1.6,0,2.8,1.3,2.8,2.8s-1.3,2.8-2.8,2.8H77c-1.6,0-2.8-1.3-2.8-2.8
		S75.5,115.3,77,115.3z"/>
	<defs>
		<filter id="Adobe_OpacityMaskFilter_4_" filterUnits="userSpaceOnUse" x="194.1" y="101.2" width="6.6" height="6.6">
			<feColorMatrix  type="matrix" values="1 0 0 0 0  0 1 0 0 0  0 0 1 0 0  0 0 0 1 0"/>
		</filter>
	</defs>
	<mask maskUnits="userSpaceOnUse" x="194.1" y="101.2" width="6.6" height="6.6" id="mask-4_5_">
		<g class="st24">
			<path id="path-3_7_" class="st9" d="M66,87h158.9c2.8,0,5,2.2,5,5v132.7c0,2.8-2.2,5-5,5H66c-2.8,0-5-2.2-5-5V92
				C61,89.2,63.2,87,66,87z"/>
		</g>
	</mask>
	<path id="Oval_2_" class="st25" d="M197.4,107.8c1.8,0,3.3-1.5,3.3-3.3s-1.5-3.3-3.3-3.3c-1.8,0-3.3,1.5-3.3,3.3
		S195.6,107.8,197.4,107.8z"/>
	<defs>
		<filter id="Adobe_OpacityMaskFilter_5_" filterUnits="userSpaceOnUse" x="203.5" y="101.2" width="6.6" height="6.6">
			<feColorMatrix  type="matrix" values="1 0 0 0 0  0 1 0 0 0  0 0 1 0 0  0 0 0 1 0"/>
		</filter>
	</defs>
	<mask maskUnits="userSpaceOnUse" x="203.5" y="101.2" width="6.6" height="6.6" id="mask-4_6_">
		<g class="st26">
			<path id="path-3_8_" class="st9" d="M66,87h158.9c2.8,0,5,2.2,5,5v132.7c0,2.8-2.2,5-5,5H66c-2.8,0-5-2.2-5-5V92
				C61,89.2,63.2,87,66,87z"/>
		</g>
	</mask>
	<path id="Oval_3_" class="st27" d="M206.8,107.8c1.8,0,3.3-1.5,3.3-3.3s-1.5-3.3-3.3-3.3c-1.8,0-3.3,1.5-3.3,3.3
		S205,107.8,206.8,107.8z"/>
	<defs>
		<filter id="Adobe_OpacityMaskFilter_6_" filterUnits="userSpaceOnUse" x="213" y="101.2" width="6.6" height="6.6">
			<feColorMatrix  type="matrix" values="1 0 0 0 0  0 1 0 0 0  0 0 1 0 0  0 0 0 1 0"/>
		</filter>
	</defs>
	<mask maskUnits="userSpaceOnUse" x="213" y="101.2" width="6.6" height="6.6" id="mask-4_7_">
		<g class="st28">
			<path id="path-3_9_" class="st9" d="M66,87h158.9c2.8,0,5,2.2,5,5v132.7c0,2.8-2.2,5-5,5H66c-2.8,0-5-2.2-5-5V92
				C61,89.2,63.2,87,66,87z"/>
		</g>
	</mask>
	<path id="Oval_4_" class="st29" d="M216.3,107.8c1.8,0,3.3-1.5,3.3-3.3s-1.5-3.3-3.3-3.3s-3.3,1.5-3.3,3.3S214.4,107.8,216.3,107.8
		z"/>
</g>
<g id="Rectangle_11_">
	<g class="st30">
		<path id="path-8_2_" class="st8" d="M293.7,117.2h225.2c4.1,0,7.5,3.4,7.5,7.5v150.5c0,4.1-3.4,7.5-7.5,7.5H293.7
			c-4.1,0-7.5-3.4-7.5-7.5V124.7C286.2,120.6,289.6,117.2,293.7,117.2z"/>
	</g>
	<g>
		<path id="path-8_1_" class="st9" d="M293.7,117.2h225.2c4.1,0,7.5,3.4,7.5,7.5v150.5c0,4.1-3.4,7.5-7.5,7.5H293.7
			c-4.1,0-7.5-3.4-7.5-7.5V124.7C286.2,120.6,289.6,117.2,293.7,117.2z"/>
	</g>
</g>
<g id="Group-26" transform="translate(31.788688, 84.863931)">
	<polygon id="Path_4_" class="st31" points="295.1,117.2 295.1,176.4 286.2,176.4 286.2,117.2 	"/>
	<polygon id="Path_5_" class="st32" points="295.1,131.4 295.1,176.4 286.2,176.4 286.2,131.4 	"/>
	<polygon id="Path_6_" class="st11" points="295.1,159.7 295.1,171 286.2,171 286.2,159.7 	"/>
</g>
<g id="Group-26_1_" transform="translate(52.981147, 70.719943)">
	<polygon id="Path_7_" class="st31" points="295.1,117.2 295.1,190.6 286.2,190.6 286.2,117.2 	"/>
	<polygon id="Path_8_" class="st32" points="295.1,138.5 295.1,190.6 286.2,190.6 286.2,138.5 	"/>
	<polygon id="Path_9_" class="st11" points="295.1,173.8 295.1,190.6 286.2,190.6 286.2,173.8 	"/>
</g>
<g id="Group-26_2_" transform="translate(74.173606, 81.327934)">
	<polygon id="Path_10_" class="st31" points="295.1,117.2 295.1,180 286.2,180 286.2,117.2 	"/>
	<polygon id="Path_11_" class="st32" points="295.1,138.5 295.1,180 286.2,180 286.2,138.5 	"/>
	<polygon id="Path_12_" class="st11" points="295.1,166.7 295.1,180 286.2,180 286.2,166.7 	"/>
</g>
<g id="Group-26_3_" transform="translate(95.366065, 63.647949)">
	<polygon id="Path_13_" class="st31" points="294.7,117.2 294.7,197.6 286.2,197.6 286.2,117.2 	"/>
	<polygon id="Path_14_" class="st32" points="294.7,138.5 294.7,197.6 286.2,197.6 286.2,138.5 	"/>
	<polygon id="Path_15_" class="st11" points="294.7,166.7 294.7,197.6 286.2,197.6 286.2,166.7 	"/>
</g>
<g id="Group-26_4_" transform="translate(116.558524, 49.503960)">
	<polygon id="Path_16_" class="st31" points="295.1,117.2 295.1,211.8 286.2,211.8 286.2,117.2 	"/>
	<polygon id="Path_17_" class="st32" points="295.1,145.5 295.1,211.8 286.2,211.8 286.2,145.5 	"/>
	<polygon id="Path_18_" class="st11" points="295.1,188 295.1,211.8 286.2,211.8 286.2,188 	"/>
</g>
<g id="Group-26_5_" transform="translate(137.750982, 70.719943)">
	<polygon id="Path_19_" class="st31" points="295.1,117.2 295.1,190.6 286.2,190.6 286.2,117.2 	"/>
	<polygon id="Path_20_" class="st32" points="295.1,138.5 295.1,190.6 286.2,190.6 286.2,138.5 	"/>
	<polygon id="Path_21_" class="st11" points="295.1,171 295.1,190.6 286.2,190.6 286.2,171 	"/>
</g>
<g id="Group-26_6_" transform="translate(158.943441, 77.791937)">
	<polygon id="Path_22_" class="st31" points="294.5,117.2 294.5,183.5 286.2,183.5 286.2,117.2 	"/>
	<polygon id="Path_23_" class="st32" points="294.5,131.4 294.5,183.5 286.2,183.5 286.2,131.4 	"/>
	<polygon id="Path_24_" class="st11" points="294.5,159 294.5,183.5 286.2,183.5 286.2,159 	"/>
</g>
<g id="Group-26_7_" transform="translate(180.135900, 63.647949)">
	<polygon id="Path_25_" class="st31" points="295.1,117.2 295.1,197.6 286.2,197.6 286.2,117.2 	"/>
	<polygon id="Path_26_" class="st32" points="295.1,145.5 295.1,197.6 286.2,197.6 286.2,145.5 	"/>
	<polygon id="Path_27_" class="st11" points="295.1,180.2 295.1,197.6 286.2,197.6 286.2,180.2 	"/>
</g>
<g id="Group-26_8_" transform="translate(201.328359, 77.791937)">
	<polygon id="Path_28_" class="st31" points="295.1,117.2 295.1,183.5 286.2,183.5 286.2,117.2 	"/>
	<polygon id="Path_29_" class="st32" points="295.1,131.4 295.1,183.5 286.2,183.5 286.2,131.4 	"/>
	<polygon id="Path_30_" class="st11" points="295.1,166 295.1,183.5 286.2,183.5 286.2,166 	"/>
</g>
<path id="Rectangle_12_" class="st33" d="M317.3,145.5H388c1.2,0,2.1,0.9,2.1,2.1c0,1.2-0.9,2.1-2.1,2.1h-70.6
	c-1.2,0-2.1-0.9-2.1-2.1C315.2,146.5,316.1,145.5,317.3,145.5z"/>
<rect id="Rectangle_13_" x="315.2" y="134.6" class="st11" width="39.6" height="3.1"/>
<g id="Chair4" transform="translate(411.171123, 275.910204)">
	<polygon id="Path_31_" class="st34" points="147.9,176 159.3,266.4 153.3,266.3 141.9,176.8 	"/>
	<path id="Path_32_" class="st6" d="M61,180.7c0-5.2,4.2-9.4,9.4-9.4h37.8c5.7,0,10.5-4.4,11-10l6-64.2c0.5-5.7,5.3-10,11-10H160
		c6.1,0,11.1,5,11.1,11.1c0,0.3,0,0.6,0,0.8l-6.2,81c-0.4,5.8-5.3,10.2-11.1,10.2H70.4C65.2,190.2,61,186,61,180.7z"/>
	<path id="Combined-Shape" class="st34" d="M159.8,87c0.6,0,1.1,0,1.7,0.1c0.1,0.6,0.1,1.1,0.1,1.7c0,0.3,0,0.6,0,0.9l-6.2,80.7
		c-0.4,5.8-5.3,10.2-11.1,10.2H61.2l-0.2,0c0-0.1,0-0.1,0-0.2c0-5.2,4.2-9.4,9.4-9.4h37.6c5.7,0,10.5-4.4,11-10l6-64
		c0.5-5.7,5.3-10,11-10H159.8z"/>
</g>
<g id="Wom1.4" transform="translate(456.000000, 330.500000) scale(-1, 1) translate(-456.000000, -330.500000) translate(384.000000, 203.000000)">
	<g id="Head" transform="translate(32.719433, 0.465078)">
		<path id="Path_33_" class="st35" d="M-51,143.9c-12.2-2.8-13-19.6-3.7-25.4c-9.6-20.1,12.6-40,27.7-27.7
			c9.9-4.3,18.2,12.3,8.9,25.2c3.9,22.1-4,27.9-18.2,28.1L-51,143.9z"/>
		
			<linearGradient id="Path_155_" gradientUnits="userSpaceOnUse" x1="418.1277" y1="467.0633" x2="418.2965" y2="465.566" gradientTransform="matrix(-26.7565 0 0 -33.6336 11147.1689 15815.2285)">
			<stop  offset="0" style="stop-color:#FFAFAF"/>
			<stop  offset="1" style="stop-color:#F07777"/>
		</linearGradient>
		<path id="Path_34_" class="st36" d="M-50.8,139.9c0,0,5.9-1.4,6.1-11.1c0.2-9.7,0.1-13,0.1-13l13.1-0.2c0,0,0.1,10.8,0.1,14.8
			c0,10.5,7.3,9.6,7.3,9.6s-1.5,8.5-13.4,9.2C-46.7,149.6-50.8,139.9-50.8,139.9z"/>
		
			<linearGradient id="Path_175_" gradientUnits="userSpaceOnUse" x1="418.5131" y1="466.4035" x2="418.7474" y2="465.4342" gradientTransform="matrix(-31.578 0 0 -29.8624 13177.585 14026.7256)">
			<stop  offset="0" style="stop-color:#FDC6C6"/>
			<stop  offset="1" style="stop-color:#FAB2B2"/>
		</linearGradient>
		<path id="Path_35_" class="st37" d="M-47.7,110.8c-5.8-0.2-4.9,8.3,1.2,8.3c0,0,3.5,12.1,15.7,12.1c9.9,0,10.6-14.1,10.7-17
			c0.1-3,0.1-12.9,0.1-12.9l-27.9,0L-47.7,110.8z"/>
		<path id="Path_36_" class="st38" d="M-33.1,123.1c0,0,2.9,2.5,6.3,0.2"/>
		<path id="Path_37_" class="st39" d="M-31.2,126c0.9,0.4,1.8,0.4,2.6,0"/>
		<path id="Path-8" class="st40" d="M-47.1,115.4c0.1-1.4-0.4-2.5-1.8-2.7"/>
		<path id="Path_38_" class="st35" d="M-48.6,109.8c0,0,3.2,4.3,3.8,4.3c0.6,0,0.9-5.6,0.9-5.6c3.9-0.3,13.8-2.3,16.3-6.9
			c1.7,4.1,5,5.9,7.1,5.5l0.4,8.6l1-17.4h-30.3L-48.6,109.8z"/>
	</g>
	<g id="LLeg" transform="translate(36.894034, 131.693412)">
		
			<linearGradient id="Path_176_" gradientUnits="userSpaceOnUse" x1="414.2372" y1="334.2923" x2="414.314" y2="333.4709" gradientTransform="matrix(-30.0535 0 0 -24.9439 12450.834 8516.3477)">
			<stop  offset="0" style="stop-color:#FDC6C6"/>
			<stop  offset="1" style="stop-color:#FAB2B2"/>
		</linearGradient>
		<path id="Path_39_" class="st41" d="M4.7,180.2c0,0-5.2,10.6-0.9,13.9c4.3,3.3,15.6,9.6,15.6,9.6l-30.1-1.9l6.7-23.1L4.7,180.2z"
			/>
		<path id="Path_40_" class="st42" d="M-7.7,190.3c1.5,0.2-0.1,5.2,3.1,5.5c3.2,0.4,4.8-4.4,8.4-2.9c3.6,1.5,16.9,9.3,17.4,12.4
			c0.5,3.2-4.4,4.1-11.2,3.4c-6.8-0.7-8-3.1-13.1-2.2c-5.1,1-8.9-0.6-8.7-4.3C-11.7,198.6-9.2,190.1-7.7,190.3z"/>
		<path id="Path-14" class="st43" d="M5.4,193.7l-0.7,1c-0.3,0.5-0.2,1.1,0.3,1.4c0,0,0,0,0.1,0l9,5c0.3,0.2,0.6,0.2,0.9,0l1.4-0.7
			l0,0c-2.2-1.6-4-2.8-5.9-3.9C8.9,195.6,7.3,194.7,5.4,193.7z"/>
		
			<linearGradient id="Path_177_" gradientUnits="userSpaceOnUse" x1="416.2411" y1="337.1397" x2="416.7267" y2="338.0341" gradientTransform="matrix(-101.1619 0 0 -99.7798 42061.0977 33816.9375)">
			<stop  offset="0" style="stop-color:#28324F"/>
			<stop  offset="1" style="stop-color:#222735"/>
		</linearGradient>
		<path id="Path_41_" class="st44" d="M-40.6,87c9.1,0.4,59.7,11.6,68.9,13.5c9.2,1.9,17,12.2,10,24.1c-7.9,13.4-28.2,51.4-33.1,60
			c-2.4,4.2-14.8,1.9-11.9-5.3c5.4-13.3,7.9-46.6,21.7-58.8c0,0-46.3,8.1-66.3-1.2C-65.8,112.7-62.5,86-40.6,87z"/>
	</g>
	<g id="LArm" transform="translate(64.335218, 56.189189)">
		
			<linearGradient id="Path_178_" gradientUnits="userSpaceOnUse" x1="385.6049" y1="409.8489" x2="385.6613" y2="408.6566" gradientTransform="matrix(-20.5809 0 0 -24.0241 7942.1016 9929.0186)">
			<stop  offset="0" style="stop-color:#FDC6C6"/>
			<stop  offset="1" style="stop-color:#FAB2B2"/>
		</linearGradient>
		<path id="Path_42_" class="st45" d="M-3.5,108.7c0,0-0.1-7.4,2.5-11.3c2.6-3.9,2.7-8,4.7-7.8c2,0.1,0,9.7,0,9.7s2.5-1,4.3-2.2
			s7.2-7.1,8.5-6.1c2.1,1.8-1.3,11.9-3.2,13.9c-1.9,2-12.2,8.7-12.2,8.7L-3.5,108.7z"/>
		<path id="Path_43_" class="st12" d="M-59.5,104.3c4.2,9.8,12,27.9,15.2,33.2c4,6.7,10.3,9.7,17.7,4.7c7.8-5.3,29.2-25.8,29.8-30.4
			c0.6-4.6-4.6-10.2-9.4-7.3c-4.7,2.9-24.4,19.3-24.4,19.3s-7.9-20.4-14.3-32.2C-50.4,81.4-65.9,89.3-59.5,104.3z"/>
		<path id="Path_44_" class="st46" d="M-30.5,123.8c1.4,4.8,2.3,7.1,2.6,6.8c0.3-0.3,0.2-3.2-0.4-8.7L-30.5,123.8z"/>
	</g>
	<g id="Body" transform="translate(23.579496, 51.612781)">
		<path id="Path_45_" class="st12" d="M-61,97c0,0,10.2,34.2,10.5,40.6c0.3,6.5-8.3,25.5-6.9,30.3C-54,179-10.7,183.8-9,168.9
			c0.8-7-0.8-13.2,1-21.4c1.8-8.2,9.3-20.4,5.1-31.9S-6,93.5-9,91.5c-3-2-10-4.1-10-4.1c-3.4,5-15,5-20.5-0.4
			C-39.5,87-53.2,89.7-61,97z"/>
		<path id="Path_46_" class="st47" d="M-51.9,102.5c6.8,10.8,6.8,29.6,10.4,32.1c3.7,2.5,17.9,0,17.9,2c0,1.9-19.6,19.8-16.4,28.4
			c1.7,4.5,1.2,8.5-1.4,12l-0.9-0.2c-7.7-1.7-14-4.9-15.2-8.8c-1.5-4.8,8.2-23.8,7.9-30.3c-0.3-5.5-8.4-30.9-10.8-38.5
			C-58.3,95.6-55.5,96.8-51.9,102.5z"/>
	</g>
	<g id="RArm" transform="translate(0.000000, 58.763197)">
		
			<linearGradient id="Path_179_" gradientUnits="userSpaceOnUse" x1="450.9796" y1="403.8113" x2="451.0564" y2="403.4767" gradientTransform="matrix(-29.1563 0 0 -15.444 13146.252 6355.061)">
			<stop  offset="0" style="stop-color:#FDC6C6"/>
			<stop  offset="1" style="stop-color:#FAB2B2"/>
		</linearGradient>
		<path id="Path_47_" class="st48" d="M-16.7,124c0,0,8.6-7.6,11.2-8.5c2.6-0.9,18-1.9,17.9,0.1c-0.1,2.1-8.4,2-9.2,3.1
			c-0.9,1.1-1.1,8.2-4.3,9c-3.2,0.8-12.9,2.2-12.9,2.2L-16.7,124z"/>
		<path id="Path_48_" class="st11" d="M-39.5,91.8c-9.1,12.8-16.8,32.2-19.7,39.8c-3,7.6,0,19,13.1,16.8c13-2.2,33.7-14.4,36-18
			c2.3-3.6-1.2-10-5.6-9.2c-4.1,0.8-24.2,9.4-24.2,9.4s13-23,16.1-29.2C-18.6,91.2-31.6,80.6-39.5,91.8z"/>
		<path id="Path_49_" class="st46" d="M-39.8,130.5c-4.5,2.3-6.5,2.9-6,2c0.6-0.9,3.4-3.1,8.6-6.4L-39.8,130.5z"/>
	</g>
</g>
<g id="LLeg_1_" transform="translate(43.000000, 123.000000)">
	<path id="Path_50_" class="st49" d="M192.1,388.2c0,0-0.1,8.7,5.2,11.8c5.3,3.1,13.6,8.8,13.6,8.8l-31.5,1.1l0.9-21.8L192.1,388.2z
		"/>
	<path id="Path_51_" class="st50" d="M178.3,397.8l-0.5,14.1h7.3l0.5-1.8c0,0,2.8-0.1,4.3,0.7c1.7,0.8,1.9,1.2,1.9,1.2l23.2,0
		c0,0,1.1-4.6-5.9-7.9c-7.1-3.3-12.2-8-13.2-8.5c-1-0.5-3-0.8-4.4,0.4c-1.4,1.1-2.5,4.1-5.7,4.2
		C181.8,400.4,179.4,395.4,178.3,397.8z"/>
	<line id="Path-38" class="st51" x1="198.1" y1="397.2" x2="195.7" y2="399.6"/>
	<line id="Path-38_1_" class="st51" x1="201.6" y1="399" x2="199.2" y2="401.3"/>
	<line id="Path-38_2_" class="st51" x1="205.1" y1="400.8" x2="202.7" y2="403.1"/>
	<path id="Path_52_" class="st52" d="M169,200c0,0,8.8,96.4,9,103.1c0.3,6.7-2.8,18.3-2.8,30.8c0,8.4,0.4,27.3,1.1,56.7l19.3,0.4
		c5.4-53.2,8.1-83.8,8.2-91.8c0.1-12,0.8-98,0.8-98L169,200z"/>
	<path id="Path_53_" class="st53" d="M182.9,306.1l0,0.2c0.3,4.1-2.2,17.5-7.6,40.3l-0.1-12.8l0,0c-0.1-12.3,2.9-23.7,2.8-30.4
		l0-0.4c-0.1-2.3-1.1-14.7-2.5-30.2l0.6,2.3C179.9,288.6,182.1,298.9,182.9,306.1z"/>
</g>
<g id="RLeg" transform="translate(12.000000, 123.000000)">
	<polygon id="Path_54_" class="st49" points="176.5,387 172.8,409.5 186.5,409.5 186.9,386.6 	"/>
	<path id="Path_55_" class="st50" d="M172.6,399.6l-0.1,3.4l0,0c-1.4,1.5-2.4,4.6-3,9.1c0,3.2,21.2,3.1,22.2,0
		c-0.7-5-1.9-8.1-3.5-9.3l0-3.3c0-1.4-0.9-2.5-2.2-2.9l-2.1-0.6l0,0c-2-2.9-4.7-2.8-7.1,0.4l-1.9,0.4
		C173.7,397,172.7,398.2,172.6,399.6z"/>
	<line id="Path-39" class="st51" x1="177.7" y1="398.7" x2="183.2" y2="398.7"/>
	<line id="Path-39_1_" class="st51" x1="177.7" y1="401.4" x2="183.2" y2="401.4"/>
	<line id="Path-39_2_" class="st51" x1="178.6" y1="404" x2="182.4" y2="404"/>
	<path id="Path_56_" class="st54" d="M183.4,201.3c0,0-6.1,66.1-6.1,78.7c0.1,12.7,1.9,18.2-0.7,27.3c-1.7,6.1-3.3,33.2-4.8,81.5
		l19,2.1c8.1-51.7,12.6-81.1,13.5-88.3c1.3-10.7,17.6-102.2,17.6-102.2L183.4,201.3z"/>
	<path id="Path_57_" class="st53" d="M188.5,246.1l-1.2,4.2c-3.4,12.4-6.5,25.5-5.7,44.2l0,0.9c0.2,4-2.4,27.6-7.7,70.5l-0.5,3
		c-0.5,3.1-1,5.7-1.4,7.9l0.1-3.8c0.7-21,2.5-58.7,4.5-65.6c2.6-9.1,0.8-14.6,0.7-27.3c-0.1-8.9,2.9-43.9,4.7-64.1l1.3-14.6l8-0.2
		l0,2.3C191.6,224.1,190.6,238.4,188.5,246.1L188.5,246.1z"/>
</g>
<g id="LArm_1_" transform="translate(62.000000, 17.000000)">
	<g id="Group-6" transform="translate(56.695443, 0.000000)">
		<path id="Path_58_" class="st49" d="M170.1,225.6c0,0-1.6-8.7-1-10.5c0.5-1.5,5.1-3.7,5.1-3.7s8-12.5,9.8-11.2
			c1.4,1-4.2,10.3-4.2,10.3s5.1,5.3,5,7.7c-0.1,2.4-8.3,9.8-8.3,9.8L170.1,225.6z"/>
		<path id="Path_59_" class="st55" d="M174.4,211.2c0,0,3.5-0.5,4.1,0.6c0.5,0.9-2.5,3.6-2.5,4.3s0,6.4,0.3,6.4
			c0.2,0.1,3.6-9.2,2.8-11.1C178.6,209.8,174.4,211.2,174.4,211.2z"/>
	</g>
	<path id="Path_60_" class="st12" d="M184.5,236.7c-9.3-8-23.2,6.4-7.7,19.9c5.9,5.1,24.6,17.9,29.1,20.7c7.3,4.5,13.2,0.4,15.7-6.6
		c2.1-6,14.5-38,13-42.7c-1-3.1-6.6-6-9.4-3.6c-4.1,3.5-16.5,34.4-16.5,34.4S195.1,245.8,184.5,236.7z"/>
	<path id="Path_61_" class="st56" d="M208.8,258.8c2.7,3.3,4.2,4.7,4.4,4.2c0.2-0.5-0.9-2.9-3.2-7.1L208.8,258.8z"/>
	<path id="Path-41" class="st57" d="M224.2,226.4c3.2-1.5,6.8,0.4,8.7,3.3"/>
</g>
<g id="Head_1_" transform="translate(37.000000, 0.000000)">
	<path id="Path_62_" class="st58" d="M169.7,244.4c0,0,5.3-1.2,5.5-9.8s0.1-11.5,0.1-11.5l12.7-0.2c0,0,0.1,9.6,0.1,13
		c0,7.5,5.7,9.6,5.7,9.6s-0.5,8.2-11.1,8.8C174.4,254.8,169.7,244.4,169.7,244.4z"/>
	<g id="Head1" transform="translate(0.526168, 0.000000)">
		
			<linearGradient id="Path_180_" gradientUnits="userSpaceOnUse" x1="20.4867" y1="661.8403" x2="20.1035" y2="661.3735" gradientTransform="matrix(4.4853 0 0 -10.5531 108.8462 7198.2393)">
			<stop  offset="0" style="stop-color:#4D63A0"/>
			<stop  offset="1" style="stop-color:#222735"/>
		</linearGradient>
		<path id="Path_63_" class="st59" d="M198.7,213.9l-0.3,8.1c2.4-2.8,4-6.2,4.5-10.6L198.7,213.9z"/>
		<path id="Path_64_" class="st49" d="M173.6,218.8c-5.2-0.2-4.4,7.3,1.1,7.3c0,0,5.9,11.5,15.1,11.6c4.4,0,5.9-3.9,7.2-6.6
			c1.3-2.7,2.3-6.8,2.4-9.3c0.1-2.7,0.1-11.4,0.1-11.4l-26,0L173.6,218.8z"/>
		<path id="Path_65_" class="st60" d="M199.4,214.5h-18.3c-0.2,3.2-1.3,5.9-4.1,7.9c0.1,4.7,1.7,8.2,4.5,10.6
			c2.4-6.9,17.4-5,16.3-0.5c-2.3,9.4-23.7,9.6-22.4-12c-0.9-1.1-3.9-1.4-4.9-0.2c-1.7-4.7-1-11.4,4-12.4
			C170.6,197.8,223.7,195.6,199.4,214.5z"/>
		<path id="Path_66_" class="st61" d="M187.7,232.1c0,0,2.4,1.7,5.5-0.2"/>
		<path id="Path-8_1_" class="st62" d="M174.4,223.1c0.1-1.2-0.3-2.2-1.6-2.4"/>
	</g>
</g>
<g id="Body_1_" transform="translate(19.000000, 43.000000)">
	<path id="Path_67_" class="st11" d="M190.1,200l15.1,9.8l6.8-7.9c0,0,14.3,4.4,17,9.6c3.8,7.5-1.2,67.5,1,71.1
		c4.7,7.7-1.5,13-22.2,15c-20.7,1.9-39,0.4-35.7-9.9c3.3-10.3-9.5-77.5,1.8-81.2C177.4,205.3,190.1,200,190.1,200z"/>
	<path id="Path_68_" class="st56" d="M179.9,218.5c0.9,1.6,0.4,7.2-1.4,16.8c-1.6,8.2,0.2,16.6,5,23.4l0.3,0.4
		c1.6,2.2,3.1,5.2,4.5,8.8c3.3,8.9-4.4,16.4,1.5,30.4l-0.7,0c-11.6-0.6-19.3-3.6-17-10.5c2.7-8.4-5.4-55.1-2.2-73.7
		C175.4,215,178.8,216.6,179.9,218.5z"/>
	<path id="Path_69_" class="st63" d="M190.1,200l13.5,8.8c-2,2.3-3,5-3.4,7.9c-5.2-4.1-10.6-9.7-12.3-15.8L190.1,200z"/>
	<path id="Path_70_" class="st63" d="M206.3,208.6c2.3,1.5,4.1,4.3,5.6,7.4c1.8-3.6,2.5-8.3,2.5-13.3l-2.2-0.9L206.3,208.6z"/>
	<path id="Path_71_" class="st64" d="M203.6,208.8l0.2,0.1c0.8,0.5,1.8,0.3,2.5-0.3l0,0l0,0c5.1,18.6,8.7,39.2,9.8,60l-5.3,8.8
		l-6.2-8.2C205.3,247.5,205.3,226.3,203.6,208.8z"/>
</g>
<g id="RArm_1_" transform="translate(0.000000, 50.000000)">
	
		<g id="Example-Book-Back" transform="translate(80.380968, 61.179493) rotate(6.000000) translate(-80.380968, -61.179493) translate(65.880968, 47.179493)">
		<g id="Group-3" transform="translate(-0.000000, -0.000000)">
			<path id="Rectangle_14_" class="st65" d="M191.5,182l12.4,0.5c1.3,0.1,2.4,1.1,2.4,2.5v21.1c0,1.4-1.1,2.5-2.5,2.5
				c0,0-0.1,0-0.1,0l-12.4-0.5c-1.3-0.1-2.4-1.1-2.4-2.5l0-21.1C189,183.1,190.1,182,191.5,182C191.5,182,191.5,182,191.5,182z"/>
			<path id="Rectangle_15_" class="st66" d="M193.1,181.5l13.1,1.2l0,0l8.7-1.1c1.4-0.2,2.6,0.8,2.7,2.1c0,0.1,0,0.2,0,0.3l0,21.1
				c0,1.2-0.9,2.3-2.2,2.4l-9.3,1.1l0,0l-13.5-1.2c-1.3-0.1-2.2-1.2-2.2-2.5l0-21.1c0-1.4,1.1-2.5,2.5-2.5
				C192.9,181.5,193,181.5,193.1,181.5z"/>
			<path id="Rectangle_16_" class="st67" d="M194.9,187l6,0.5c0.8,0.1,1.5,0.8,1.5,1.6v2.4c0,0.9-0.7,1.6-1.6,1.6c0,0-0.1,0-0.1,0
				l-6-0.5c-0.8-0.1-1.5-0.8-1.5-1.6v-2.4c0-0.9,0.7-1.6,1.6-1.6C194.9,187,194.9,187,194.9,187z"/>
			<path id="Rectangle_17_" class="st68" d="M206,182.6h0.5c0.4,0,0.8,0.4,0.8,0.8l0,24.4c0,0.4-0.4,0.8-0.8,0.8H206
				c-0.4,0-0.8-0.4-0.8-0.8v-24.4C205.2,183,205.6,182.6,206,182.6z"/>
			<path id="Rectangle_18_" class="st69" d="M206.7,182.6h0.5c0.4,0,0.8,0.4,0.8,0.8l0,24.4c0,0.4-0.4,0.8-0.8,0.8h-0.5
				c-0.4,0-0.8-0.4-0.8-0.8l0-24.4C205.9,183,206.3,182.6,206.7,182.6z"/>
		</g>
	</g>
	<path id="Path_72_" class="st49" d="M222.9,258.4c0,0,4.6-0.9,6.5-2.4c1.9-1.5,7.6-2.5,7.6-2.5l-1.8,3.8c0,0,13.9-1.3,14.3,0.1
		c0.3,1.4-3.7,2.9-3.7,2.9s-2,3.7-3.9,5.8c-1.8,2-10.9,1.8-14,0.5c-2.7-1.1-5.7-0.5-5.7-0.5L222.9,258.4z"/>
	<path id="Path_73_" class="st12" d="M186,205.2c5-10.7,22-3.5,17.7,8c-4.2,11.1-14.3,37-14.3,37s32,4,34.5,5.9
		c3.3,2.5,1.3,9.7-1.6,10.9c-2.4,1.1-20.2,1.7-37.5,0.3c-8.6-0.7-15-4.3-15.8-13.9C168.4,246.9,181.2,215.5,186,205.2z"/>
	<path id="Path_74_" class="st56" d="M189.5,250.2c-1.8,3.3-2.4,5.1-1.9,5.1c0.5,0.1,2-1.5,4.6-4.8L189.5,250.2z"/>
	<path id="Path-40" class="st57" d="M221.7,255.6c1,3.1,0.3,6.8-1.1,9.4"/>
</g>
<g id="Vase2" transform="translate(25.000000, 297.161224)">
	<g id="Group-39" transform="translate(0.000000, 0.838776)">
		<path id="Rectangle_19_" class="st70" d="M61.4,147.3c8.2-3.7,17.9,0,21.6,8.2c0,0,0,0.1,0,0.1l2.9,6.5l0,0
			c-8.2,3.7-17.9,0-21.6-8.2c0,0,0-0.1,0-0.1L61.4,147.3L61.4,147.3z"/>
		<path id="Path_75_" class="st71" d="M73.2,151.3c8.2,5.9,13.6,12.4,16.1,19.6c2.5,7.2,3.5,19.4,3,36.4c0,0.3,0.2,0.5,0.5,0.5
			c0.3,0,0.5-0.2,0.5-0.5c0.5-17.1-0.6-29.4-3.1-36.8c-2.5-7.4-8-14.1-16.4-20.1c-0.2-0.2-0.5-0.1-0.7,0.1
			C72.9,150.9,73,151.1,73.2,151.3z"/>
		<path id="Rectangle_20_" class="st70" d="M131.5,143.3c-8.1-3.8-17.7-0.3-21.6,7.8c0,0,0,0.1,0,0.1l-3.2,7l0,0
			c8.1,3.8,17.7,0.3,21.6-7.8c0,0,0-0.1,0-0.1L131.5,143.3L131.5,143.3z"/>
		
			<g id="Group-88" transform="translate(20.755961, 71.269687) rotate(-12.000000) translate(-20.755961, -71.269687) translate(11.755961, 37.269687)">
			<path id="Rectangle_21_" class="st70" d="M42.1,98.4c8,0,14.5,6.5,14.5,14.5v6.5l0,0c-8,0-14.5-6.5-14.5-14.5V98.4L42.1,98.4z"/>
			<path id="Path_76_" class="st71" d="M46.7,104.6c5,5.4,8.1,10.7,9.2,15.9l0.1,0.3l0.1,0.3c1,5.8,1.6,20.5,1.8,44.1
				c0,0.3,0.2,0.5,0.5,0.5c0.3,0,0.5-0.2,0.5-0.5l0-2.9l0-3.4c-0.2-20.9-0.8-33.8-1.9-38.7c-1.1-5.4-4.3-10.9-9.4-16.4
				c-0.2-0.2-0.5-0.2-0.7,0C46.5,104.1,46.5,104.4,46.7,104.6z"/>
		</g>
		<path id="Rectangle_22_" class="st70" d="M119.6,122.6c-8.6-0.2-15.8,6.7-15.9,15.4c0,0,0,0,0,0l-0.1,7.7l0,0
			c8.6,0.2,15.8-6.7,15.9-15.4c0,0,0,0,0,0L119.6,122.6L119.6,122.6z"/>
		<path id="Path_77_" class="st71" d="M114,125.7c-5.6,8.2-9.6,16-12.2,23.6c-2.6,7.6-5.1,19.3-7.7,35.1c0,0.3,0.1,0.5,0.4,0.5
			c0.3,0,0.5-0.1,0.5-0.4l0.3-1.9l0.2-1.3c2.4-14.2,4.7-24.8,7.1-31.8c2.5-7.5,6.6-15.3,12.1-23.4c0.1-0.2,0.1-0.5-0.1-0.7
			C114.4,125.4,114.1,125.4,114,125.7z"/>
		<g id="Group-87" transform="translate(33.142697, 13.911947)">
			<path id="Path_78_" class="st71" d="M68.8,106.4c-3,8.6-5.2,19.2-6.5,31.8c-1.3,12.6-1.6,25.2-0.8,37.8l2.2,0.2
				c-0.8-14.7-0.7-27.4,0.2-38c0.9-10.6,2.9-21.2,6-31.8L68.8,106.4z"/>
			<path id="Oval_5_" class="st72" d="M68.4,110.8c3.9,1,7.8-1.4,8.8-5.3c1-3.9-1.9-15.9-3.5-16.3c-1.6-0.4-9.7,8.8-10.6,12.7
				C62.1,105.9,64.5,109.9,68.4,110.8z"/>
			<path id="Oval_6_" class="st70" d="M69.5,107.8c2.7,0.7,5.5-1,6.2-3.8c0.7-2.8-1.9-10.1-3-10.3s-6.1,5.1-6.8,7.9
				C65.1,104.3,66.8,107.1,69.5,107.8z"/>
			
				<linearGradient id="Path_181_" gradientUnits="userSpaceOnUse" x1="5.6317" y1="354.0414" x2="5.6317" y2="352.9748" gradientTransform="matrix(6.8994 0 0 -15.5301 32.4044 5589.8047)">
				<stop  offset="0" style="stop-color:#FE62BE"/>
				<stop  offset="1" style="stop-color:#FDB3A8"/>
			</linearGradient>
			<path id="Path_79_" class="st73" d="M70.6,107.1l4.1-12.7c0.2-0.8-0.2-1.6-0.9-1.8c-0.7-0.2-1.5,0.2-1.8,0.9l-4.1,12.7
				c-0.2,0.8,0.2,1.6,0.9,1.8C69.5,108.3,70.3,107.8,70.6,107.1z"/>
		</g>
		
			<g id="Group-87_1_" transform="translate(19.400683, 46.275460) scale(-1, 1) rotate(6.000000) translate(-19.400683, -46.275460) translate(9.400683, 1.275460)">
			<path id="Path_80_" class="st71" d="M-43.8,112.3c-3,8.6-5.2,19.2-6.5,31.8c-1.3,12.6-1.6,25.2-0.8,37.8l2.2,0.2
				c-0.8-14.7-0.7-27.4,0.2-38c0.9-10.6,2.9-21.2,6-31.8L-43.8,112.3z"/>
			<path id="Oval_7_" class="st72" d="M-44.2,116.7c3.9,1,7.8-1.4,8.8-5.3c1-3.9-1.9-15.9-3.5-16.3c-1.6-0.4-9.7,8.8-10.6,12.7
				C-50.5,111.8-48.1,115.8-44.2,116.7z"/>
			<path id="Oval_8_" class="st70" d="M-43.1,113.7c2.7,0.7,5.5-1,6.2-3.8c0.7-2.8-1.9-10.1-3-10.3c-1.1-0.3-6.1,5.1-6.8,7.9
				C-47.5,110.2-45.8,113-43.1,113.7z"/>
			
				<linearGradient id="Path_182_" gradientUnits="userSpaceOnUse" x1="1.2397" y1="369.916" x2="1.2397" y2="368.8493" gradientTransform="matrix(-6.8616 -1.6233 0.7212 -15.445 -299.5843 5812.7798)">
				<stop  offset="0" style="stop-color:#FE62BE"/>
				<stop  offset="1" style="stop-color:#FDB3A8"/>
			</linearGradient>
			<path id="Path_81_" class="st74" d="M-42,113l4.1-12.7c0.2-0.8-0.2-1.6-0.9-1.8s-1.5,0.2-1.8,0.9l-4.1,12.7
				c-0.2,0.8,0.2,1.6,0.9,1.8S-42.2,113.7-42,113z"/>
		</g>
		<path id="Path_82_" class="st71" d="M127,145.3c-11.2,4.4-19.1,9.5-23.5,15.3c-4.4,5.8-7.4,14.7-8.8,26.9c0,0.3,0.2,0.5,0.4,0.5
			c0.3,0,0.5-0.2,0.5-0.4c1.4-12,4.3-20.8,8.6-26.4c4.3-5.6,12-10.6,23.1-14.9c0.2-0.1,0.4-0.4,0.3-0.6
			C127.5,145.4,127.3,145.3,127,145.3z"/>
	</g>
	<g id="Group-38" transform="translate(9.000000, 63.838776)">
		<path id="Path-151" class="st71" d="M87.9,117.6c-3.6-12.7-12.3-17.1-26.4-13.4c10.5,3.4,18.4,7.9,23.8,13.4H87.9z"/>
		<path id="Path-151_1_" class="st71" d="M87.9,114.7C91.4,102,99.1,96.6,111,98.5c-7.2,5.9-14,11.3-20.5,16.2H87.9z"/>
		<path id="Path-151_2_" class="st71" d="M87.8,118.5c-3.2-11.2-1.1-21.7,6.4-31.4c-0.4,13.3-1.9,23.3-4.4,30.1L87.8,118.5z"/>
		<path id="Path-114" class="st70" d="M83.2,114.7c-2.1-6.1-4.2-14.6-5.8-22.8c7.8,3.1,10.3,15.6,7.8,22.8H83.2z"/>
		<g id="Group-89" transform="translate(6.356670, 21.127769)">
			<g id="Rectangle_23_">
				<path id="path-18_1_" class="st11" d="M63.7,87.4h30.7c1.1,0,2,0.9,2,2c0,0.1,0,0.1,0,0.2l-5.9,67.6c-0.1,1-1,1.8-2,1.8H69.6
					c-1,0-1.9-0.8-2-1.8l-5.9-67.6c-0.1-1.1,0.7-2.1,1.8-2.2C63.6,87.4,63.6,87.4,63.7,87.4z"/>
			</g>
			<defs>
				<filter id="Adobe_OpacityMaskFilter_7_" filterUnits="userSpaceOnUse" x="57.1" y="83" width="18.6" height="81.8">
					<feColorMatrix  type="matrix" values="1 0 0 0 0  0 1 0 0 0  0 0 1 0 0  0 0 0 1 0"/>
				</filter>
			</defs>
			<mask maskUnits="userSpaceOnUse" x="57.1" y="83" width="18.6" height="81.8" id="mask-19_1_">
				<g class="st75">
					<path id="path-18_2_" class="st9" d="M63.7,87.4h30.7c1.1,0,2,0.9,2,2c0,0.1,0,0.1,0,0.2l-5.9,67.6c-0.1,1-1,1.8-2,1.8H69.6
						c-1,0-1.9-0.8-2-1.8l-5.9-67.6c-0.1-1.1,0.7-2.1,1.8-2.2C63.6,87.4,63.6,87.4,63.7,87.4z"/>
				</g>
			</mask>
			<path id="Rectangle_24_" class="st76" d="M57.1,83H70c-8,30.5,16.1,51.4,0,81.8H57.1V83z"/>
		</g>
	</g>
</g>
<g id="Chair4_1_" transform="translate(571.625668, 275.910204)">
	<polygon id="Path-25" class="st6" points="108.1,176 96.7,266.4 102.7,266.3 114.1,176.8 	"/>
	<polygon id="Path_83_" class="st6" points="74.8,176 63.4,266.4 69.4,266.3 80.8,176.8 	"/>
	<polygon id="Path_84_" class="st34" points="147.9,176 159.3,266.4 153.3,266.3 141.9,176.8 	"/>
	<path id="Path_85_" class="st6" d="M61,180.7c0-5.2,4.2-9.4,9.4-9.4h37.8c5.7,0,10.5-4.4,11-10l6-64.2c0.5-5.7,5.3-10,11-10H160
		c6.1,0,11.1,5,11.1,11.1c0,0.3,0,0.6,0,0.8l-6.2,81c-0.4,5.8-5.3,10.2-11.1,10.2H70.4C65.2,190.2,61,186,61,180.7z"/>
	<path id="Combined-Shape_1_" class="st34" d="M159.8,87c0.6,0,1.1,0,1.7,0.1c0.1,0.6,0.1,1.1,0.1,1.7c0,0.3,0,0.6,0,0.9l-6.2,80.7
		c-0.4,5.8-5.3,10.2-11.1,10.2H61.2l-0.2,0c0-0.1,0-0.1,0-0.2c0-5.2,4.2-9.4,9.4-9.4h37.6c5.7,0,10.5-4.4,11-10l6-64
		c0.5-5.7,5.3-10,11-10H159.8z"/>
</g>
<g id="Wom2.4" transform="translate(601.000000, 329.500000) scale(-1, 1) translate(-601.000000, -329.500000) translate(517.000000, 200.000000)">
	<g id="LLeg_2_" transform="translate(36.000000, 133.000000)">
		
			<linearGradient id="Path_183_" gradientUnits="userSpaceOnUse" x1="572.1383" y1="335.9969" x2="572.2151" y2="335.1764" gradientTransform="matrix(-30.1398 0 0 -25.0019 17245.8789 8578.6025)">
			<stop  offset="0" style="stop-color:#FDC6C6"/>
			<stop  offset="1" style="stop-color:#FAB2B2"/>
		</linearGradient>
		<path id="Path_86_" class="st77" d="M4.9,180.4c0,0-5.2,10.6-0.9,13.9c4.3,3.3,15.7,9.6,15.7,9.6l-30.1-1.9l6.7-23.1L4.9,180.4z"
			/>
		<path id="Path_87_" class="st78" d="M-7.5,190c0.9,0.5-0.6,4.7,2.7,4.4c3.3-0.3,5.4-4.7,7.9-4.4c2.5,0.3,4,4.7,8.7,7.8
			c4.7,3.1,11.6,6.8,11.2,9.9c-0.5,3.1-11.4,3.9-16.9,2.9c-5.5-1-8.1-3.3-11.7-3.1c-3.6,0.2-5.8-0.3-7-2.6
			C-13.8,202.6-8.6,189.5-7.5,190z"/>
		<path id="Path_88_" class="st79" d="M-7.3,204.2l0.3,0c4.5-0.4,7.5,2.4,11.7,3.2c4.2,0.8,15.4,1.1,17.2-1.6
			c0.1-0.1,0.2-0.3,0.2-0.4c0.6,0.7,0.9,1.5,0.7,2.4c-0.5,3-11.4,3.7-16.9,2.8c-5.5-1-8.1-3.1-11.7-2.9l-0.6,0
			c-3.2,0.1-5.3-0.4-6.3-2.5c-0.3-0.5-0.2-1.6,0.1-2.9C-11.1,203.3-9.2,204.2-7.3,204.2L-7.3,204.2z"/>
		<path id="Path_89_" class="st80" d="M-40.5,87c9.1,0.4,59.9,11.6,69.1,13.5c9.2,1.9,17,12.2,10,24.2
			c-7.9,13.4-28.3,51.5-33.2,60.1c-2.5,4.3-14.8,1.9-11.9-5.3c5.4-13.3,7.9-46.7,21.7-58.9c0,0-46.4,8.1-66.5-1.2
			C-65.8,112.8-62.5,86-40.5,87z"/>
	</g>
	<g id="LArm_2_" transform="translate(63.520000, 56.320000)">
		
			<linearGradient id="Path_184_" gradientUnits="userSpaceOnUse" x1="545.4349" y1="415.484" x2="545.5001" y2="414.2917" gradientTransform="matrix(-46.78 0 0 -50.8192 25506.5918 21189.7344)">
			<stop  offset="0" style="stop-color:#FDC6C6"/>
			<stop  offset="1" style="stop-color:#FAB2B2"/>
		</linearGradient>
		<path id="Path_90_" class="st81" d="M-4.4,106.8c0,0-0.1-5.4,2.5-9.3c2.6-3.9,2.7-8,4.7-7.9c2,0.1,0,9.7,0,9.7s2.5-1,4.3-2.2
			c1.8-1.2,7.2-7.1,8.5-6.1c2.2,1.8-1.3,11.9-3.2,13.9c-1.9,2-11.2,7.7-11.2,7.7l-27.5,27.7l-4.1-14.7L-4.4,106.8z"/>
		<path id="Path_91_" class="st82" d="M-59.5,104.3c4.2,9.8,12,27.9,15.2,33.3c4,6.8,10.3,9.7,17.8,4.7c1-0.7,3-2.3,6-4.7
			c-0.7-6.4-3.1-11.8-7.2-16.1c-1.9,1.5-2.8,2.3-2.8,2.3s-8-20.4-14.4-32.2C-50.4,81.4-65.9,89.3-59.5,104.3z"/>
		<path id="Path_92_" class="st56" d="M-30.4,123.9c1.4,4.8,2.3,7.1,2.6,6.8c0.3-0.3,0.2-3.2-0.4-8.7L-30.4,123.9z"/>
	</g>
	<g id="Head_2_" transform="translate(35.000000, 0.000000)">
		<path id="Path_93_" class="st35" d="M-49.3,122.4v8.7l-6.4-5.2c0,0-2-8.3-3.6-14.5c-1-3.9-3.4-17,6.4-16.4
			c8.1-14.2,31.5-5.4,31.7,11.9c0.2,20.9,0,29,0,29C-34.4,136.7-41.8,134.8-49.3,122.4z"/>
		
			<linearGradient id="Path_185_" gradientUnits="userSpaceOnUse" x1="572.8194" y1="470.5373" x2="572.9843" y2="469.0399" gradientTransform="matrix(-26.5056 0 0 -33.7119 15137.4033 15967.9561)">
			<stop  offset="0" style="stop-color:#FFAFAF"/>
			<stop  offset="1" style="stop-color:#F07777"/>
		</linearGradient>
		<path id="Path_94_" class="st83" d="M-55.8,139c0,0,6-1.4,6.2-11.1c0.2-9.8,0.1-13.1,0.1-13.1l13.1-0.2c0,0,0.1,10.9,0.1,14.8
			c0,9.6,7,10.3,7,10.3s-1.2,7.9-13.1,8.6C-51.7,148.7-55.8,139-55.8,139z"/>
		
			<linearGradient id="Path_186_" gradientUnits="userSpaceOnUse" x1="573.2392" y1="469.8778" x2="573.4735" y2="468.9096" gradientTransform="matrix(-31.6686 0 0 -29.9319 18110.5742 14162.1885)">
			<stop  offset="0" style="stop-color:#FDC6C6"/>
			<stop  offset="1" style="stop-color:#FAB2B2"/>
		</linearGradient>
		<path id="Path_95_" class="st84" d="M-52.7,109.9c-5.8-0.2-4.9,8.3,1.2,8.3c0,0,3.5,12.2,15.8,12.2c9.9,0,10.6-14.2,10.7-17
			c0.1-3,0.1-12.9,0.1-12.9l-28,0L-52.7,109.9z"/>
		<path id="Path_96_" class="st35" d="M-53.1,109.8c2.4,0.4,2.1,2,2.8,1.9c3.3-0.7,16.9,0.2,18.6-7.2c2.2,4.7,2.7,5.8,7.5,7V97.9
			L-54.4,95C-54.4,95-54,109.7-53.1,109.8z"/>
		<path id="Path_97_" class="st38" d="M-38.1,122.2c0,0,2.9,2.5,6.3,0.2"/>
		<path id="Path_98_" class="st39" d="M-36.1,125.1c0.9,0.4,1.8,0.4,2.6,0"/>
		<path id="Path-8_2_" class="st40" d="M-52.1,114.5c0.1-1.4-0.4-2.5-1.8-2.7"/>
	</g>
	<g id="Body_2_" transform="translate(20.000000, 50.000000)">
		<path id="Path_99_" class="st85" d="M-39.5,88c7.5,4.6,16.1,6.3,24.1,1.3C-2.2,115.1,1,146-2.1,180.1c-19.1,7.6-35.2,6.1-48.9-2.6
			L-39.5,88z"/>
		<g id="RLeg_1_" transform="translate(2.000000, 79.000000)">
			
				<linearGradient id="Path_187_" gradientUnits="userSpaceOnUse" x1="586.6154" y1="340.3935" x2="586.6922" y2="339.7618" gradientTransform="matrix(-38.2653 0 0 -27.8509 22504.4082 9667.3955)">
				<stop  offset="0" style="stop-color:#FDC6C6"/>
				<stop  offset="1" style="stop-color:#FAB2B2"/>
			</linearGradient>
			<path id="Path_100_" class="st86" d="M51.6,184.8c0,0-0.2,12.5,10.1,17.1c10.3,4.7,17.6,4.4,16.7,8c-0.9,3.6-27.7,3.5-30.2,0.6
				c-2.1-2.4-6.8-24.7-8-23L51.6,184.8z"/>
			<path id="Path_101_" class="st78" d="M44.1,202.5c1.6-1.1,2.9,5.4,7.2,3.6c4.3-1.8,0.9-7.8,3.6-8.9s7.9,4.8,14.8,6.3
				c6.9,1.4,12.5,2.7,14.1,5.4c1.4,2.3,0,3,0,3s-6.6,3.3-10.8,4c-6,1.1-23.3,1.8-25.2-0.2C46.6,214.5,43.3,203,44.1,202.5z"/>
			<path id="Path_102_" class="st79" d="M84.2,209.1c1.3,2.1-0.8,3.2-1,3.3l-1,0.4c-1.9,0.8-6.1,2.5-9.3,3.1
				c-5.7,1.1-23.5,1.7-25.5-0.1c-0.3-0.3-0.8-1.5-1.2-3.1l1.2,0.1c5.9,0.6,19,1.7,25.5,0.2c5.7-1.4,8.9-3.6,10.3-4.9
				C83.7,208.4,84,208.7,84.2,209.1z"/>
			<path id="Path_103_" class="st87" d="M-55.1,87.2c-8.8,18.7-7.1,31.2,5.4,37.6c18,9.3,72-1.7,72-1.7s-1,7.8,0,14.7
				c2.5,18.1,14.5,48.2,17,52c3.5,5.2,14.2,1.3,14.4-3.1c0.2-4.4-8-60-9.3-70.7c-1.2-10.6-5.2-12.2-16.7-15.1
				c-2.6-0.7-33.9-8.4-36.8-8.2C-25.5,94.1-40.8,92.2-55.1,87.2z"/>
			<path id="Path_104_" class="st88" d="M-40.6,121.9c17.8,2,65.1-2.1,67-0.2c1.8,1.8,1.5,32.9,5.6,50.9l-0.6-1.7
				c-3.8-10.6-7.8-23.5-9.1-33.1c-1-6.9,0-14.7,0-14.7l-2.2,0.4c-10.3,1.9-54,9.5-69.8,1.3c-8.6-4.4-12.1-11.8-10.5-22.1
				C-57.5,114.3-51,120.8-40.6,121.9z"/>
		</g>
		<path id="Path_105_" class="st82" d="M-39.2,88c12.4,40.5,19.8,98-18.8,88c20.5-37.8-7.4-54.8-1.1-74.3
			C-56.9,95-39.3,87.5-39.2,88z"/>
		<path id="Path_106_" class="st56" d="M-53.1,104.8c14,2.1,2.5,26.5,7.1,30.2s12.6,4.1,13.5,6.3c1.7,4.5-6.7,15.9-25.2,34.2
			L-58,176c17.9-32.9-1-50.1-2-66.8C-57.9,105.9-55.6,104.5-53.1,104.8z"/>
		<path id="Path_107_" class="st82" d="M-16,89c4.7,11.8,7,21.1,9.1,38.5c1.2,9.6,1.5,24.4,0.9,44.3l5.8,1.1
			c2.8-30.8,3.7-48.1,2.8-52.1c-2.3-10-3.9-15.8-7-24.9C-6.1,91-16,89-16,89z"/>
	</g>
	<g id="RArm_2_" transform="translate(0.000000, 59.900000)">
		
			<linearGradient id="Path_188_" gradientUnits="userSpaceOnUse" x1="609.2198" y1="410.055" x2="609.2967" y2="409.6344" gradientTransform="matrix(-55.4618 0 0 -32.9415 33768.3555 13629.6104)">
			<stop  offset="0" style="stop-color:#FDC6C6"/>
			<stop  offset="1" style="stop-color:#FAB2B2"/>
		</linearGradient>
		<path id="Path_108_" class="st89" d="M-16.6,124.1c0,0,7.6-7.6,10.3-8.5c2.6-0.9,17.1-1.9,17,0.1c-0.1,2.1-9.4,2-10.3,3.1
			c-0.9,1.1-2.1,9.3-5.3,10.1c-3.2,0.8-10,3.2-10,3.2l-29.9,15.5l3.2-15.5L-16.6,124.1z"/>
		<path id="Path_109_" class="st82" d="M-39.5,91.8c-9.1,12.8-16.8,32.3-19.8,39.9c-3,7.6,0,19.1,13.1,16.8c1-0.2,2.4-0.6,4.1-1.3
			c4.8-6.6,5.7-12.3,3.9-17.3c-1.1,0.5-1.7,0.7-1.7,0.7s13-23,16.2-29.2C-18.4,91.2-31.5,80.5-39.5,91.8z"/>
		<path id="Path_110_" class="st56" d="M-39.9,130.8c-4.4,2.2-6.3,2.8-5.8,1.8c0.6-0.9,3.3-3,8.3-6.3L-39.9,130.8z"/>
	</g>
</g>
<g id="Group-3_1_" transform="translate(544.885264, 274.915964) rotate(-14.000000) translate(-544.885264, -274.915964) translate(529.885264, 254.415964)">
	
		<linearGradient id="Rectangle_45_" gradientUnits="userSpaceOnUse" x1="-540.7948" y1="290.7822" x2="-540.7948" y2="289.5547" gradientTransform="matrix(28.251 9.7142 7.0438 -38.9616 13282.502 16672.7871)">
		<stop  offset="0" style="stop-color:#9FF6EC"/>
		<stop  offset="1" style="stop-color:#7D9DFF"/>
	</linearGradient>
	<path id="Rectangle_25_" class="st90" d="M40.6,99.2h24.2c1.4,0,2.5,1.1,2.5,2.5v35.2c0,1.4-1.1,2.5-2.5,2.5H40.6
		c-1.4,0-2.5-1.1-2.5-2.5v-35.2C38.1,100.3,39.2,99.2,40.6,99.2z"/>
	<path id="Rectangle_26_" class="st91" d="M41.4,99.9h24.2c1.4,0,2.5,1.1,2.5,2.5v35.2c0,1.4-1.1,2.5-2.5,2.5H41.4
		c-1.4,0-2.5-1.1-2.5-2.5l0-35.2C38.9,101,40,99.9,41.4,99.9z"/>
	<path id="Rectangle_27_" class="st92" d="M42,100.7h22.7c1.2,0,2.2,1,2.2,2.2v31.8c0,1.2-1,2.2-2.2,2.2H42c-1.2,0-2.2-1-2.2-2.2
		v-31.8C39.8,101.7,40.8,100.7,42,100.7z"/>
</g>
<g id="Group-26_9_" transform="translate(198.804813, 310.871429)">
	<g id="Group-25" transform="translate(11.570160, 0.000000)">
		<polygon id="Rectangle_28_" class="st93" points="173.8,87 185.2,87 185.2,231.9 173.8,231.9 		"/>
		<polygon id="Rectangle_29_" class="st94" points="62,91.8 152.2,91.8 152.2,118.7 77,118.7 77,231.9 62,231.9 		"/>
		<polygon id="Rectangle_30_" class="st95" points="61.4,91.8 69.4,91.8 69.4,231.9 61.4,231.9 		"/>
	</g>
	<g id="Group-25_1_">
		<polygon id="Rectangle_31_" class="st93" points="465.6,91.8 481.6,91.8 481.6,231.9 465.6,231.9 		"/>
		<polygon id="Rectangle_32_" class="st95" points="465.6,87 475.6,87 475.6,231.9 465.6,231.9 		"/>
		<polygon id="Rectangle_33_" class="st94" points="333.2,91.8 472.2,91.8 472.2,118.3 351.9,118.3 351.9,231.9 333.2,231.9 		"/>
		<polygon id="Rectangle_34_" class="st95" points="84.8,87 333.7,87 333.7,127.2 84.8,127.2 		"/>
		<polygon id="Rectangle_35_" class="st93" points="328,91.8 339.4,91.8 339.4,127.2 328,127.2 		"/>
		<polygon id="Rectangle_36_" class="st95" points="333.2,91.8 342.2,91.8 342.2,231.9 333.2,231.9 		"/>
		<path id="Rectangle_37_" class="st93" d="M341.8,87h145.1c3.9,0,7.1,3.2,7.1,7.1c0,3.9-3.2,7.1-7.1,7.1H341.8
			c-3.9,0-7.1-3.2-7.1-7.1C334.7,90.2,337.9,87,341.8,87z"/>
		<polygon id="Rectangle_38_" class="st93" points="81.9,89.9 330.8,89.9 330.8,104.1 81.9,104.1 		"/>
		<path id="Rectangle_39_" class="st95" d="M68.1,87h276.5c3.9,0,7.1,3.2,7.1,7.1c0,3.9-3.2,7.1-7.1,7.1H68.1
			c-3.9,0-7.1-3.2-7.1-7.1C61,90.2,64.2,87,68.1,87z"/>
	</g>
</g>
<g id="Men2.8" transform="translate(261.096257, 330.153061) scale(-1, 1) translate(-261.096257, -330.153061) translate(174.596257, 203.153061)">
	
		<g id="RLeg_2_" transform="translate(99.474263, 195.228252) scale(-1, 1) translate(-99.474263, -195.228252) translate(54.474263, 136.728252)">
		<path id="Path_111_" class="st96" d="M101.3,167.3l-7.9,25.6l16.6,0.6c0,0-1.9-8.8,0.8-17c2.1-6.6,3.9-9.9,3.9-9.9L101.3,167.3z"
			/>
		<path id="Path_112_" class="st97" d="M109.5,186.5c4.2,3.9,8.4,6.6,12.4,8c6.1,2.2,8.4,2.2,8.8,3l0.1,0.2c1.3,2.6,0.5,6-13.4,6.2
			c-3.4,0-6.9-1.9-16.2-4l-0.7,3.6c-5.2-0.1-8.2-0.9-9.1-2.5c-1.3-2.4,0.9-13.9,2.5-14.2c1.5-0.2,1.8,4.5,6,4.6
			C104,191.6,109.5,186.5,109.5,186.5z"/>
		<path id="Combined-Shape_2_" class="st98" d="M109.5,186.5c4.1,3.8,8.1,6.4,12.1,7.9c-1.1,1.1-2.7,1.4-4.6,0.9
			c-2.4-0.5-5.5-3.1-9.2-7.7l0.2,0.2C108.9,187.1,109.5,186.5,109.5,186.5z"/>
		<path id="Path_113_" class="st99" d="M63.5,87c43.9,3.5,68.8,5.4,74.9,5.5c9.1,0.3,16,13.2,9,25.2c-7.9,13.4-29.3,52-33.5,60.9
			c-3.5,7.5-19.6,4.5-16.7-7.1c3.5-13.8,9.9-44.7,23.7-56.9c0,0-33.5,12.1-52.3,0.4C61.3,110.6,59.6,101.2,63.5,87z"/>
		<path id="Path_114_" class="st100" d="M147.3,117.7l-1,1.8c-4,6.9-10.4,18.5-16.6,29.9l0.3-1c4.8-15.1,12.1-33,15.3-38.4
			c1.1-1.9,2.6-3.9,4.5-5.8C150.7,108.3,150.1,113.1,147.3,117.7z"/>
	</g>
	
		<g id="LLeg_3_" transform="translate(68.521390, 196.400000) scale(-1, 1) translate(-68.521390, -196.400000) translate(0.521390, 138.900000)">
		<path id="Path_115_" class="st96" d="M164.9,165.4c0,0,4.4,19.6,10.1,21.7c2.2,0.8-16.9,3.1-16.9,3.1l-4.8-18.8L164.9,165.4z"/>
		<path id="Path_116_" class="st97" d="M155.4,183.6l-0.3,16.5l6.6,0l0.1-3.7c0,0,5.1,3.1,8.6,4.2c4.7,1.5,23.1,0.7,25.2-1.5
			c2.1-2.2,2.1-5.8-2.2-6.2c-4.3-0.4-11.4-1.7-14.4-4.1c-3.7-2.8-5.1-7.3-6.2-7.3c-1.6,0-1.8,5.2-10.1,5.3
			C159.6,186.8,155.4,183.6,155.4,183.6z"/>
		<path id="Path_117_" class="st98" d="M171.1,183c0,0,4.2,6.6,6.8,7.6c2.5,0.9,4.6-0.1,4.6-0.1s-4.4-1.7-6-4.8
			C172.6,178.8,171.8,182.3,171.1,183z"/>
		<path id="Path_118_" class="st99" d="M61,90.2c-0.1,14,4.6,22.8,14,26.3c14.1,5.3,60.1,3.3,60.1,3.3s14.6,53.7,18.1,58.9
			c3.5,5.2,20.1,5.8,19.2-6.3c-0.9-12-7.4-56.8-8.6-67.4c-1.2-10.6-5.2-13.1-16.7-15c-4-0.7-2.3-1.7-28.3-3
			c-5.6-0.3-14.9,1.8-23.5,2.8C89.6,90.5,78.2,90.6,61,90.2z"/>
		<path id="Path_119_" class="st100" d="M106.9,90.6v-2.4l1.2-0.2c4.2-0.6,8-1.1,10.8-1l3,0.1c22.8,1.2,21.4,2.2,25.3,2.8l0.7,0.1
			c10.7,1.8,14.5,4.4,15.8,14.2l0.4,3c1.7,13.6,7.5,53.8,8.3,65.1c0.1,0.9,0,1.7-0.1,2.5L169,158c-5-25.1-7.7-40-8.3-44.6l-0.1-1
			c-1.1-8.2-4-18.5-13.5-17.8l-0.8,0.1c-6.7,0.5-19.3-0.8-37.8-3.8L106.9,90.6z"/>
		
			<ellipse id="Oval_9_" transform="matrix(0.225 -0.9744 0.9744 0.225 30.9283 252.6004)" class="st100" cx="174.2" cy="106.9" rx="6.6" ry="3.8"/>
	</g>
	<g id="RArm_3_" transform="translate(104.430481, 51.024490)">
		
			<linearGradient id="Path_189_" gradientUnits="userSpaceOnUse" x1="162.092" y1="416.9962" x2="162.1404" y2="415.8038" gradientTransform="matrix(-16.6733 -9.1915 11.5866 -21.0181 -2166.4712 10397.5977)">
			<stop  offset="0" style="stop-color:#FDC6C6"/>
			<stop  offset="1" style="stop-color:#A47070"/>
		</linearGradient>
		<path id="Path_120_" class="st101" d="M-39.1,150.1c0,0-15.4,3.6-15.2,5c0.2,1.4,6.9,1.6,6.9,1.6s-12.5,8.1-11.5,9.7
			c1,1.6,9.2,3.4,12.6,2.1c3.4-1.3,12.2-10.5,12.2-10.5L-39.1,150.1z"/>
		<path id="Path_121_" class="st82" d="M-39.2,104.5c5.2,6.4,22.7,25.8,22.7,25.8s-17.6,12.5-22,15.2c-7.3,4.3,0.1,15.9,5.4,14.6
			c7.2-1.7,25.4-14.3,34-19.4s5.3-13.3-1-20.8C-5,114.2-15.6,102.4-23,92C-30.4,81.7-49.2,92.2-39.2,104.5z"/>
		<path id="Path-15" class="st56" d="M-16.5,130.3c3.3,3.2,4.8,4.9,4.4,5.1c-0.3,0.2-2.5-1-6.5-3.7L-16.5,130.3z"/>
	</g>
	<g id="Head_3_" transform="translate(91.918950, 0.000000)">
		
			<linearGradient id="Path_190_" gradientUnits="userSpaceOnUse" x1="179.0629" y1="467.9303" x2="179.121" y2="466.738" gradientTransform="matrix(-34.2549 0 0 -39.3867 6088.9243 18519.3574)">
			<stop  offset="0" style="stop-color:#FDC6C6"/>
			<stop  offset="1" style="stop-color:#A47070"/>
		</linearGradient>
		<path id="Path_122_" class="st102" d="M-57.4,108.9c-4.3,0.5-4,8.1,1.2,8.5c1.1,7.3,4.9,10.8,9.6,11.2l-0.3,11.1l20.7,0
			c0,0-5.8-7.8-5.5-18.6c0.3-10.7-0.2-20.8-0.2-20.8l-26.8,0.5L-57.4,108.9z"/>
		<path id="Path_123_" class="st103" d="M-49,88.2c-15.9,4-9.4,21-9.4,21c4.8-0.7,9.4,5.2,11.2,10.9c5.1,5.2,11.7,5.2,16,2.2
			c4-12.4,5.4-20.7,4.1-24.8C-29,91.2-34.4,84.5-49,88.2z"/>
	</g>
	<g id="Body_3_" transform="translate(80.216435, 46.620498)">
		<path id="Path_124_" class="st82" d="M0.4,95.5c1.4,2.4,2.5,12.2,0,51.1c-1.3,20.1,4.1,40,2.7,48.7c-0.9,5.8-4.6,9.1-11,9.8
			l-5.6-18.2l-2.6,18.2c-26.5-2.5-40.9-6.7-43.2-12.8c-3.5-9.1,0.9-30.4,1.9-50.4c1-20.1,0.3-40.8,2.2-44
			c3.8-6.3,13.7-9.2,19.9-10.1c7.8-1.2,17.8-1.2,23.8,0.7C-5.5,90.4-1,93.1,0.4,95.5z"/>
		<path id="Path_125_" class="st56" d="M-40,109.4c-3.1,23.1-7.3,39.4-12.6,48.7c-2.2,3.9-4.4,5.4-6.6,4.8l0.5-5.1
			c0.5-5.2,1-10.5,1.3-15.8c0.2-3.7,0.3-7.4,0.4-10.9L-40,109.4z"/>
		<path id="Path_126_" class="st104" d="M-11.5,88.5c0.4,0.1,0.7,0.2,1.1,0.4c-8.6,3.7-22.8,3.2-30.5,0.2c2-0.6,3.9-1,5.6-1.2
			C-27.5,86.6-17.5,86.6-11.5,88.5z"/>
	</g>
	<g id="LArm_3_" transform="translate(5.000000, 53.236735)">
		
			<linearGradient id="Path_191_" gradientUnits="userSpaceOnUse" x1="265.1179" y1="413.2951" x2="265.1795" y2="412.1028" gradientTransform="matrix(-24.5401 0 0 -27.402 6456.9053 11412.7471)">
			<stop  offset="0" style="stop-color:#FDC6C6"/>
			<stop  offset="1" style="stop-color:#A47070"/>
		</linearGradient>
		<path id="Path_127_" class="st105" d="M-41.6,122.8c0,0-12.8-8.5-15-10.2c-2.3-1.7-5.1-14.7-3.3-16.5c0.8-0.9,7.2,5,8.4,5.8
			c1.1,0.8,6.9,4.3,6.9,4.3s-1.6-9.9-0.2-10.7c1-0.6,3.1,2,3.4,4.7c0.3,2.7,3.2,6.2,3.6,10.3c0.2,1.8,1.9,5.2,1.9,5.2L-41.6,122.8z"
			/>
		<path id="Path_128_" class="st82" d="M34.6,106.4c-4.9,10.2-13.2,25.1-17.8,33.8c-5.4,10.3-11.9,14.7-24.8,7
			c-10.9-6.4-26.6-16.7-34.7-22.3c-7.5-5.2,1.4-18.1,8.5-13.8c9.5,5.8,33.6,17.2,33.6,17.2S11.8,105.6,17,94.7
			C23.6,80.8,44.1,86.7,34.6,106.4z"/>
		<path id="Path_129_" class="st56" d="M-0.6,128.3c-1.5,5.3-2.5,7.9-2.8,7.7c-0.4-0.2-0.2-3.2,0.4-8.8L-0.6,128.3z"/>
	</g>
</g>
<g id="Chair8" transform="translate(228.251337, 367.800000) scale(-1, 1) translate(-228.251337, -367.800000) translate(172.751337, 277.800000)">
	<polygon id="Path_130_" class="st34" points="-9,185.4 2.4,266.4 -3.6,266.3 -15,186.3 	"/>
	<polygon id="Path_131_" class="st6" points="-47.2,185.4 -58.6,266.4 -52.6,266.3 -41.2,186.3 	"/>
	<polygon id="Path_132_" class="st34" points="25.9,185.4 37.3,266.4 31.3,266.3 19.9,186.3 	"/>
	<path id="Path_133_" class="st34" d="M-61,180.7c0-5.2,4.2-9.4,9.4-9.4h37.8c5.7,0,10.5-4.4,11-10l6-64.2c0.5-5.7,5.3-10,11-10H38
		c6.1,0,11.1,5,11.1,11.1c0,0.3,0,0.6,0,0.8l-6.2,81c-0.4,5.8-5.3,10.2-11.1,10.2h-83.4C-56.8,190.2-61,186-61,180.7z"/>
	<path id="Combined-Shape_3_" class="st6" d="M8.5,88.6l-6.3,81.9c-0.4,5.8-5.3,10.2-11.1,10.2h-52l-0.2,0c0-0.1,0-0.1,0-0.2
		c0-5.2,4.2-9.4,9.4-9.4h37.6c5.7,0,10.5-4.4,11-10l6-64C3.5,93.4,5.6,90.3,8.5,88.6z"/>
</g>
<g id="Front-Laptop3" transform="translate(458.112299, 290.795918) scale(-1, 1) translate(-458.112299, -290.795918) translate(411.612299, 269.295918)">
	
		<linearGradient id="Rectangle_47_" gradientUnits="userSpaceOnUse" x1="429.2481" y1="356.2794" x2="429.2481" y2="355.0519" gradientTransform="matrix(-85.6294 0 0 -2.5898 36744.6836 1048.6083)">
		<stop  offset="0" style="stop-color:#9FF6EC"/>
		<stop  offset="1" style="stop-color:#7D9DFF"/>
	</linearGradient>
	<path id="Rectangle_40_" class="st106" d="M-53.6,126.5h84.1c0.4,0,0.7,0.3,0.7,0.7v1.1c0,0.4-0.3,0.7-0.7,0.7h-84.1
		c-0.4,0-0.7-0.3-0.7-0.7v-1.1C-54.4,126.8-54,126.5-53.6,126.5z"/>
	<path id="Rectangle_41_" class="st91" d="M-53.6,126.5h32.3c0.4,0,0.7,0.3,0.7,0.7v1.1c0,0.4-0.3,0.7-0.7,0.7h-32.3
		c-0.4,0-0.7-0.3-0.7-0.7v-1.1C-54.4,126.8-54,126.5-53.6,126.5z"/>
	<path id="Rectangle_42_" class="st91" d="M-56.9,87h55.8c1.8,0,3.3,1.3,3.6,3.1l4.2,32.4c0.3,2-1.1,3.8-3.1,4c-0.2,0-0.3,0-0.5,0
		h-55.8c-1.8,0-3.3-1.3-3.6-3.1l-4.2-32.4c-0.3-2,1.1-3.8,3.1-4C-57.2,87-57.1,87-56.9,87z"/>
	
		<linearGradient id="Rectangle_48_" gradientUnits="userSpaceOnUse" x1="428.9908" y1="401.7509" x2="428.9908" y2="400.5233" gradientTransform="matrix(-65.9833 0 0 -39.6132 28280.3906 15992.6064)">
		<stop  offset="0" style="stop-color:#9FF6EC"/>
		<stop  offset="1" style="stop-color:#7D9DFF"/>
	</linearGradient>
	<path id="Rectangle_43_" class="st107" d="M-55.2,87h54.6c1.8,0,3.3,1.3,3.6,3.1l4.2,32.4c0.3,2-1.1,3.8-3.1,4c-0.2,0-0.3,0-0.5,0
		h-54.6c-1.8,0-3.3-1.3-3.6-3.1l-4.2-32.4c-0.3-2,1.1-3.8,3.1-4C-55.5,87-55.4,87-55.2,87z"/>
	<path id="Rectangle_44_" class="st92" d="M-53.6,88.9h51.8c1.6,0,3,1.2,3.2,2.8l3.7,29.2c0.2,1.8-1,3.4-2.8,3.6c-0.1,0-0.3,0-0.4,0
		h-51.8c-1.6,0-3-1.2-3.2-2.8l-3.7-29.2c-0.2-1.8,1-3.4,2.8-3.6C-53.9,88.9-53.8,88.9-53.6,88.9z"/>
</g>
<g id="Wom3.8" transform="translate(403.000000, 333.500000) scale(-1, 1) translate(-403.000000, -333.500000) translate(323.000000, 209.000000)">
	<g id="RArm_4_" transform="translate(100.000000, 54.000000)">
		
			<linearGradient id="Path_192_" gradientUnits="userSpaceOnUse" x1="304.3717" y1="409.5461" x2="304.4098" y2="408.3538" gradientTransform="matrix(-26.5052 -14.6114 20.7484 -37.6376 -451.1366 19977.5547)">
			<stop  offset="0" style="stop-color:#FDC6C6"/>
			<stop  offset="1" style="stop-color:#FFCCA1"/>
		</linearGradient>
		<path id="Path_134_" class="st108" d="M-41.6,143.2c0,0-13.6,3.2-13.5,4.4c0.1,1.3,6.1,1.4,6.1,1.4s-11.1,7.2-10.2,8.6
			c0.9,1.4,8.1,3,11.1,1.9c3-1.1,10.8-9.4,10.8-9.4l21.8-11.7l-7.3-9.6L-41.6,143.2z"/>
		<path id="Path_135_" class="st109" d="M-41.8,102.6c4.6,5.7,20.1,23,20.1,23s-1,0.8-3.1,2.3l10,12.1c4.2-2.6,7.1-4.3,8.5-5.2
			c7.6-4.5,4.7-11.8-0.9-18.5c-4.3-5.1-13.6-15.6-20.2-24.8C-34,82.3-50.6,91.6-41.8,102.6z"/>
		<path id="Path-15_1_" class="st56" d="M-21.7,125.6c2.9,2.8,4.2,4.4,3.9,4.6c-0.3,0.2-2.2-0.9-5.7-3.3L-21.7,125.6z"/>
		<polygon id="Path-76" class="st110" points="-24.1,126.6 -11.1,139.5 -17.6,143.7 -26.6,128.5 		"/>
	</g>
	
		<g id="LLeg_4_" transform="translate(97.500000, 190.500000) scale(-1, 1) translate(-97.500000, -190.500000) translate(55.000000, 132.000000)">
		
			<linearGradient id="Path_193_" gradientUnits="userSpaceOnUse" x1="-263.8957" y1="327.9769" x2="-263.8609" y2="326.7845" gradientTransform="matrix(-15.9938 0 0 -23.7498 -4113.7217 7946.3594)">
			<stop  offset="0" style="stop-color:#FDC6C6"/>
			<stop  offset="1" style="stop-color:#FAB2B2"/>
		</linearGradient>
		<path id="Path_136_" class="st111" d="M105.6,164.2l-7,22.6l11.8,0.5c0,0-1.7-7.7,0.7-15c1.9-5.8,3.5-8.7,3.5-8.7L105.6,164.2z"/>
		<path id="Path_137_" class="st97" d="M110.5,180.8c0,0-0.2,5.8,1.8,7.6c2,1.8,12.7,8.5,13.6,9.9c0.9,1.4-0.4,3-0.4,3
			s-10.9,1.7-16-0.9c-3.7-1.9-6.4-3.5-6.4-3.5l-1.1,2.9l-6-0.9c0,0-1.8-4.6-1-7c0.8-2.3,4.9-13.1,4.9-13.1S103.3,179.5,110.5,180.8z
			"/>
		<path id="Path_138_" class="st112" d="M71.2,87c8.9,0.9,52.7,11.3,61.7,13.1c9,1.9,16.6,11.9,9.8,23.5c-5.1,8.7-15,26.5-29.5,53.5
			c-0.1,0-0.3,0.1-0.4,0.1c-4.4,0-8.4-0.6-12.2-3.3c3.9-28.3,10.3-46.4,19.3-54.3c0,0-34.8,12.5-52.2-1.1
			C57.3,110.5,61.5,86.1,71.2,87z"/>
		<path id="Combined-Shape_4_" class="st100" d="M142.7,123.7c-1.4,2.4-3.2,5.5-5.2,9.1l2.3-29.3
			C145.1,107.7,147.7,115.3,142.7,123.7z"/>
	</g>
	
		<g id="RLeg_3_" transform="translate(64.000000, 188.000000) scale(-1, 1) translate(-64.000000, -188.000000) translate(0.000000, 129.000000)">
		
			<linearGradient id="Path_194_" gradientUnits="userSpaceOnUse" x1="-276.0176" y1="330.5185" x2="-275.9743" y2="329.3262" gradientTransform="matrix(-16.3969 0 0 -21.8606 -4365.3267 7384.6196)">
			<stop  offset="0" style="stop-color:#FDC6C6"/>
			<stop  offset="1" style="stop-color:#FAB2B2"/>
		</linearGradient>
		<path id="Path_139_" class="st113" d="M159.1,165.4c0,0,3.9,17.3,8.9,19.1c1.9,0.7-12,2.7-12,2.7l-4.2-16.6L159.1,165.4z"/>
		<path id="Path_140_" class="st97" d="M154.3,182.5l3.7,21.6l6.4-1l-0.8-5.3c0,0,2.8,4.7,5.9,4.5c3.1-0.2,18.8-2.6,18.8-2.6
			s0.4-5.2-6.8-6.4c-6-1-16.2-12.5-16.2-12.5L154.3,182.5z"/>
		<path id="Path_141_" class="st114" d="M66.7,87.2c-8.6,18.1-6.8,30.3,5.2,36.5c17.4,9,63.8-2.6,63.8-2.6s-0.9,7.5,0,14.3
			c2.4,17.5,14.4,39.1,15.5,42.7c0.5,1.8,13.9-0.9,13.9-3s-6.8-50.5-8-60.8c-1.2-10.3-5-11.8-16.2-14.6c-2.6-0.6-35.7-8.2-38.5-8
			C86.6,92.9,74.7,91.4,66.7,87.2z"/>
		<path id="Path_142_" class="st100" d="M102.5,91.7c2.8-0.2,35.9,7.3,38.5,8l1.8,0.5c9.5,2.5,13,4.3,14.2,13.5l0.3,2.6
			c1,7.6,3.7,25.6,5.9,40.6c-2.4-5.5-4.4-11.6-6-18.3c-3.7-15.6-2.9-28.4-3.9-30.7c-1-2.2-49.5-9.4-57.8-10.9
			c-3.6-0.6-5.7-2.2-6.1-4.8C93.4,92.2,97.8,92,102.5,91.7z"/>
	</g>
	<g id="Head_4_" transform="translate(90.000000, 3.000000)">
		
			<linearGradient id="Path_195_" gradientUnits="userSpaceOnUse" x1="316.1215" y1="458.6927" x2="316.1796" y2="457.5004" gradientTransform="matrix(-30.5237 0 0 -35.1002 9602.1797 16191.5254)">
			<stop  offset="0" style="stop-color:#FDC6C6"/>
			<stop  offset="1" style="stop-color:#FFCCA1"/>
		</linearGradient>
		<path id="Path_143_" class="st115" d="M-58.2,108.9c-3.9,0.4-3.6,7.2,1.1,7.6c1,6.5,4.4,9.7,8.5,10l-0.2,9.9l18.4,0
			c0,0-5.2-7-4.9-16.5c0.3-9.6-0.2-18.5-0.2-18.5l-23.9,0.4L-58.2,108.9z"/>
		<path id="Path_144_" class="st116" d="M-59,109.4c4.5-1.8,7.8,5.9,11.2,11.2s12.3,4.4,13.6,0c4.6-9.7,8.6-22.8,3.2-23.9
			C-31.8,82.7-68.3,86-59,109.4z"/>
		<path id="Combined-Shape_5_" class="st47" d="M-33.7,91.4c1.6,1.3,2.6,3.1,2.7,5.3c5.4,1.1,1.4,14.2-3.2,23.9
			c-1.1,4.1-8.9,5.2-12.8,1c-3.5-10.5-2-22.3,5.1-30.2l0,0L-33.7,91.4z"/>
		<ellipse id="Oval_10_" class="st117" cx="-38.9" cy="91.4" rx="4.4" ry="-4.4"/>
	</g>
	<g id="Body_4_" transform="translate(77.000000, 49.000000)">
		<path id="Path_145_" class="st118" d="M-49.7,92c-4.1,6-10.9,26.3-11.3,30.9c-0.4,5.3,5.2,13.7,5.3,21.3
			c0.1,7.6-4.2,26.7-2.9,28.9c1.3,2.1,43.9,14.6,46.3,13.5c2.4-1,10.7-12,8.8-16.5c-1.9-4.5-9.8-14.6-8.9-20.7
			c0.9-6.1,6.1-28.6,8.6-36.2c2.6-7.7,1.7-15.7-3.1-19c-2.4-1.6-8.7-6.3-19.9-6.2C-37.9,88-49.4,91.5-49.7,92z"/>
		<path id="Path_146_" class="st56" d="M-58.9,118l19.6-14.1l0,2.6c-0.1,15.8-1.1,24.2-17.7,50.2l0.4-2.6c0.5-3.8,1-7.4,0.9-9.9
			c-0.1-4.8-2.3-9.9-3.9-14.4L-58.9,118z"/>
		<path id="Path-68" class="st119" d="M-37,87.5c-0.3,1.7,0.2,2.6,1.6,2.6c2.1,0,15.9,0.5,17.8-0.4c1.3-0.5,1.7-1.3,1.3-2.2H-37z"/>
	</g>
	<g id="LArm_4_" transform="translate(15.000000, 53.000000)">
		
			<linearGradient id="Path_196_" gradientUnits="userSpaceOnUse" x1="392.1173" y1="409.2859" x2="392.1942" y2="408.3945" gradientTransform="matrix(-52.0109 0 0 -44.971 20357.4883 18496.7305)">
			<stop  offset="0" style="stop-color:#FDC6C6"/>
			<stop  offset="1" style="stop-color:#FFCCA1"/>
		</linearGradient>
		<path id="Path_147_" class="st120" d="M-44.1,118.9c0,0-11.3-7.5-13.3-9c-2-1.5-4.5-12.9-2.9-14.5c0.7-0.8,6.4,4.4,7.4,5.1
			c1,0.7,6.1,3.8,6.1,3.8s-1.4-8.7-0.2-9.4c0.9-0.5,2.8,1.7,3,4.1c0.2,2.4,2.8,5.5,3.1,9.1c0.1,1.6,0.7,3.6,0.7,3.6L-8.8,125
			l-3.3,14.6L-44.1,118.9z"/>
		<path id="Path_148_" class="st109" d="M23.1,104.4c-4.3,9-11.7,22.1-15.7,29.8c-4.8,9.1-10.5,13-21.9,6.2
			c-0.9-0.5-2.3-1.4-4.2-2.6l7.1-15.8c2.5,1.1,3.7,1.6,3.7,1.6S3,103.7,7.6,94.1C13.4,81.8,31.5,87,23.1,104.4z"/>
		<path id="Path_149_" class="st56" d="M-8,123.8c-1.3,4.7-2.2,7-2.5,6.8c-0.3-0.2-0.2-2.8,0.3-7.8L-8,123.8z"/>
		<polygon id="Path-75" class="st110" points="-11.6,121.4 -16.5,141.1 -23.9,137.1 -14.2,119.9 		"/>
	</g>
	<path id="Path_150_" class="st116" d="M50.7,91.1c0,0,4.1-5.3,8.9-3.9c4.8,1.4,9.1,9.9,7.1,18c-2,8-0.4,12.6,2.1,18
		c6.7,14.6-16.4,23.8-16.4,23.8c1.2-7.2,0.6-13-1.7-17.3c-3.6-6.7-5.7-15.3-5.7-20.6C45,100,50.7,91.1,50.7,91.1z"/>
</g>
<g id="Chair8_1_" transform="translate(362.278075, 367.800000) scale(-1, 1) translate(-362.278075, -367.800000) translate(306.778075, 277.800000)">
	<polygon id="Path_151_" class="st6" points="-13.9,185.4 -25.3,266.4 -19.3,266.3 -7.9,186.3 	"/>
	<polygon id="Path_152_" class="st6" points="-47.2,185.4 -58.6,266.4 -52.6,266.3 -41.2,186.3 	"/>
	<polygon id="Path_153_" class="st34" points="25.9,185.4 37.3,266.4 31.3,266.3 19.9,186.3 	"/>
	<path id="Path_154_" class="st34" d="M-61,180.7c0-5.2,4.2-9.4,9.4-9.4h37.8c5.7,0,10.5-4.4,11-10l6-64.2c0.5-5.7,5.3-10,11-10H38
		c6.1,0,11.1,5,11.1,11.1c0,0.3,0,0.6,0,0.8l-6.2,81c-0.4,5.8-5.3,10.2-11.1,10.2h-83.4C-56.8,190.2-61,186-61,180.7z"/>
	<path id="Combined-Shape_6_" class="st6" d="M8.5,88.6l-6.3,81.9c-0.4,5.8-5.3,10.2-11.1,10.2h-52l-0.2,0c0-0.1,0-0.1,0-0.2
		c0-5.2,4.2-9.4,9.4-9.4h37.6c5.7,0,10.5-4.4,11-10l6-64C3.5,93.4,5.6,90.3,8.5,88.6z"/>
</g>
</svg>
